<?xml version="1.0" encoding="UTF-8" standalone="no"?>
<svg
   xmlns:dc="http://purl.org/dc/elements/1.1/"
   xmlns:cc="http://creativecommons.org/ns#"
   xmlns:rdf="http://www.w3.org/1999/02/22-rdf-syntax-ns#"
   xmlns:svg="http://www.w3.org/2000/svg"
   xmlns="http://www.w3.org/2000/svg"
   viewBox="0 0 400 112.5"
   height="112.5"
   width="400"
   xml:space="preserve"
   version="1.1"
   id="svg2"><metadata
     id="metadata8"><rdf:RDF><cc:Work
         rdf:about=""><dc:format>image/svg+xml</dc:format><dc:type
           rdf:resource="http://purl.org/dc/dcmitype/StillImage" /></cc:Work></rdf:RDF></metadata><defs
     id="defs6"><clipPath
       id="clipPath16"
       clipPathUnits="userSpaceOnUse"><path
         id="path18"
         d="M 0,90 320,90 320,0 0,0 0,90 Z" /></clipPath></defs><g
     transform="matrix(1.25,0,0,-1.25,0,112.5)"
     id="g10"><g
       id="g12"><g
         clip-path="url(#clipPath16)"
         id="g14"><g
           transform="translate(79.8672,63.1434)"
           id="g20"><path
             id="path22"
             style="fill:#231f20;fill-opacity:1;fill-rule:evenodd;stroke:none"
             d="m 0,0 c -4.342,7.218 -14.064,3.088 -11.986,-5.244 2.787,-11.18 16.399,-13.858 21.416,-23.824 2.754,-5.473 1.029,-10.946 -3.186,-13.347 -4.323,-2.463 -11.629,-3.439 -16.117,-0.147 -2.25,1.651 -2.063,2.896 -3.25,-0.209 -0.382,-0.998 -1.017,-2.095 -2.254,-1.043 -1.948,1.655 -1.908,6.907 1.374,9.141 2.092,1.116 3.511,0.527 5.448,-1.389 4.701,-3.863 10.684,-2.714 12.233,0.484 0.996,2.057 -0.008,5.273 -2.006,7.518 -2.891,3.248 -7.448,6.047 -11.199,10.429 -4.948,5.779 -8.721,12.247 -6.254,18.619 2.146,5.545 8.312,10.652 15.59,6.969 C 4.109,5.78 8.307,0.811 5.9,-4.121 4.241,-7.523 -0.894,-8.615 -3.267,-5.096 -4.698,-2.973 1.201,-1.963 0,0" /></g><g
           transform="translate(98.8585,51.5047)"
           id="g24"><path
             id="path26"
             style="fill:#231f20;fill-opacity:1;fill-rule:evenodd;stroke:none"
             d="m 0,0 c 0.196,-6.149 -6.787,-5.673 -6.976,0.23 -0.086,2.663 2.084,3.391 3.512,3.293 0.62,-0.042 1.503,-0.402 2.223,-1.038 C -0.565,1.889 -0.033,1.048 0,0" /></g><g
           transform="translate(92.4229,37.7723)"
           id="g28"><path
             id="path30"
             style="fill:#231f20;fill-opacity:1;fill-rule:evenodd;stroke:none"
             d="M 0,0 C -0.101,-0.062 -0.2,-0.121 -0.296,-0.175 -3.262,-1.83 -2.368,1.549 -0.771,3.539 0.84,5.548 2.192,6.296 3.444,6.122 4.563,5.967 5.417,5.307 5.616,4.343 6.423,0.442 2.031,-10.493 6.677,-13.376 c 0.935,-0.579 1.978,-0.378 2.676,0.437 0.873,1.016 0.992,2.677 2.084,3.008 0.491,0.149 0.896,-0.06 1.078,-1.364 C 12.839,-15.22 11.09,-20.83 5.742,-18.907 0.983,-16.742 1.19,-7.646 1.208,-2.656 1.21,-2.317 1.082,0.667 0,0" /></g><g
           transform="translate(110.3829,27.4935)"
           id="g32"><path
             id="path34"
             style="fill:#231f20;fill-opacity:1;fill-rule:nonzero;stroke:none"
             d="m 0,0 -0.157,-0.204 -0.251,-0.012 c 0,0 -0.116,0.23 -0.446,0.909 -0.328,0.679 -1.552,5.052 -1.62,5.127 -0.066,0.076 -1.148,4.115 -1.273,4.54 -0.129,0.427 -0.035,0.707 -0.035,0.707 0,0 0.132,0.322 0.414,0.571 0.281,0.25 1.339,0.578 1.339,0.578 l 0.211,0.01 0.184,-0.345 0.127,-0.86 L -1.189,8.873 -0.217,2.705 0.11,0.36 0,0 Z m 16.486,17.034 c -0.445,1.034 -1.154,1.69 -2.267,1.648 -2.622,-0.207 -3.134,-0.104 -5.585,-0.251 -2.452,-0.145 -4.55,-0.25 -6.295,-0.315 0.341,2.999 0.682,6 1.024,9 0.949,8.719 0.991,14.087 0.127,16.102 -0.652,1.525 -1.697,2.123 -3.133,1.792 -2.237,-0.413 -2.768,-4.274 -3.014,-11.529 -0.117,-4.098 0.221,-9.289 0.784,-16.128 -0.534,-0.131 -2.165,-0.605 -3.236,-0.922 -1.072,-0.316 -1.925,-0.653 -2.562,-1.007 -0.367,-0.181 -0.548,-0.561 -0.547,-1.142 10e-4,-0.58 0.167,-1.252 0.492,-2.015 0.864,-2.015 2.2,-5.077 4.01,-9.186 1.808,-4.109 3.028,-6.9 3.657,-8.372 1.096,-2.558 2.517,-3.805 4.263,-3.742 1.406,0.052 2.246,0.25 2.518,0.591 0.274,0.342 0.131,1.167 -0.43,2.474 C 4.754,-2.374 3.723,1.185 3.2,4.706 2.916,6.521 2.774,10.049 2.752,13.091 c 5.468,1.257 9.219,0.921 12.359,1.756 l 0.163,0.058 c 1.212,0.762 0.542,0.367 0.962,0.825 0.421,0.458 0.482,0.76 0.25,1.304" /></g><g
           transform="translate(130.4532,30.5179)"
           id="g36"><path
             id="path38"
             style="fill:#231f20;fill-opacity:1;fill-rule:evenodd;stroke:none"
             d="M 0,0 C 4.443,1.421 8.082,5.264 8.414,7.366 9.04,11.338 2.959,14.751 0.713,8.239 0.141,6.579 -0.015,2.915 0,0 M 15.521,-5.144 C 12.134,-9.376 7.363,-13.221 1.975,-11.7 c -3.067,1.091 -5.059,4.104 -6.052,7.772 -0.932,3.444 -0.982,7.466 -0.206,11.012 1.218,5.574 4.585,10.155 8.521,10.202 7.395,-0.739 11.178,-8.919 7.408,-14.689 -2.099,-3.21 -6.45,-4.845 -8.56,-5.856 -0.797,-0.383 -1.43,-0.56 -1.322,-2.121 0.254,-3.746 6.598,-3.687 10.594,4.573 0.369,0.76 2.865,4.039 4.494,3.055 3.412,-2.063 -0.914,-6.871 -1.331,-7.392" /></g><g
           transform="translate(175.795,39.9798)"
           id="g40"><path
             id="path42"
             style="fill:#231f20;fill-opacity:1;fill-rule:evenodd;stroke:none"
             d="m 0,0 c -0.324,-3.338 4.725,-20.605 1.094,-20.902 -2.141,-0.176 -3.455,-0.4 -4.018,0.752 -0.533,1.096 1.572,9.982 -0.156,7.287 -0.397,-0.618 -0.32,-0.668 -0.959,-1.813 -5.949,-10.639 -14.019,-7.811 -18.711,0.843 -2.816,5.193 -4.416,12.484 -3.613,20.222 1.28,12.344 6.578,28.528 19.037,25.87 9.789,-2.089 3.049,-15.176 -0.373,-11.831 -8.086,17.719 -24.211,-25.069 -6.369,-35.407 5.152,-2.985 9.556,6.747 8.5,11.031 -0.741,3.01 -0.914,3.114 -2.411,2.665 -1.162,-0.35 -5.147,-3.765 -6.259,-2.733 -1.395,1.293 -2.148,6.38 0.646,6.528 3.233,0.168 5.065,-0.881 8.883,3.732 C -1.238,10.437 1.59,9.186 0.994,4.646 0.732,2.659 0.148,1.526 0,0" /></g><g
           transform="translate(198.7247,46.3221)"
           id="g44"><path
             id="path46"
             style="fill:#231f20;fill-opacity:1;fill-rule:evenodd;stroke:none"
             d="m 0,0 c -2.012,1.551 -6.26,3.39 -10.154,2.986 -5.432,-0.563 -10.455,-4.217 -9.94,-9.926 0.221,-2.437 0.467,-12.842 1.395,-17.119 0.318,-1.461 1.152,-2.826 2.595,-3.215 1.36,-0.367 3.083,0.012 3.741,1.554 0.892,2.09 -0.092,4.028 -0.598,5.8 -1.029,3.601 -1.496,8.616 -1.787,11.717 -0.6,6.374 9.061,7.247 11.342,3.538 -1.641,-2.536 0.736,-4.13 3.709,-1.827 C 2.986,-4.412 1.91,-1.476 0,0" /></g><g
           transform="translate(205.8546,35.2552)"
           id="g48"><path
             id="path50"
             style="fill:#231f20;fill-opacity:1;fill-rule:evenodd;stroke:none"
             d="M 0,0 C 1.566,16.333 12.313,8.735 13.695,-1.907 15.07,-12.454 -2.3,-18.771 0,0 m 6.066,-16.767 c 13.371,2.254 18.514,23.045 1.93,30.139 -17.253,5.589 -18.143,-33.538 -1.93,-30.139" /></g><g
           transform="translate(231.212,39.8411)"
           id="g52"><path
             id="path54"
             style="fill:#231f20;fill-opacity:1;fill-rule:evenodd;stroke:none"
             d="m 0,0 c -2.064,-4.639 -1.252,-23.247 8.344,-14.431 2.092,1.923 2.357,8.097 1.574,13.384 C 9.736,0.172 8.707,3.882 8.361,5 7.922,6.425 9.107,8.416 10.91,9.023 c 1.463,0.493 3.111,-0.389 3.713,-1.817 1,-2.383 0.342,-6.289 0.234,-7.889 -0.318,-4.768 -1.097,-10.637 0.602,-13.722 0.725,-1.318 1.727,-1.451 1.762,-2.433 0.127,-3.511 -4.051,-5.76 -5.639,-3.581 -0.424,0.581 -0.072,1.541 -0.719,1.972 -7.888,-7.083 -16.578,-1.529 -16.445,8.616 0.029,2.218 -0.279,5.837 0.523,8.976 0.625,2.442 1.022,4.77 2.297,6.092 1.672,1.208 2.535,0.482 3.069,0.084 C 1.479,4.44 0.6,1.667 0,0" /></g><g
           transform="translate(266.4874,24.0198)"
           id="g56"><path
             id="path58"
             style="fill:#231f20;fill-opacity:1;fill-rule:evenodd;stroke:none"
             d="m 0,0 c 1.406,4.784 3.053,12.593 2.002,15.483 -1.576,4.33 -7.58,5.918 -10.543,1.487 -1.818,-2.718 -1.867,-12.447 0.447,-18.139 0.553,-1.362 -0.474,-3.26 -2.228,-3.839 -6.602,-2.184 -1.471,16.11 -5.324,21.954 -0.831,1.257 -1.842,1.383 -1.956,2.321 -0.406,3.35 3.592,5.495 5.352,3.417 0.469,-0.556 0.193,-1.47 0.871,-1.883 C -4.057,27.56 6.84,22.48 7.51,12.8 7.736,9.547 6.785,2.482 4.934,-1.99 4.416,-3.243 3.826,-4.292 3.174,-4.998 1.602,-6.149 0.68,-5.458 0.115,-5.076 -1.125,-4.237 -0.467,-1.592 0,0" /></g><g
           transform="translate(284.7256,24.9578)"
           id="g60"><path
             id="path62"
             style="fill:#231f20;fill-opacity:1;fill-rule:evenodd;stroke:none"
             d="M 0,0 C 8.711,-6.311 11.461,10.042 7.119,16.099 1.797,23.525 -11.684,9.109 0,0 m 10.846,20.354 c 0.623,5.243 -1.575,20.48 -5.604,20.864 -1.084,0.104 -1.34,2.746 -0.597,4.314 0.74,1.57 2.48,2.065 5.38,0.867 4.647,-1.92 5,-19.376 5.094,-24.635 0.09,-5.054 -0.156,-11.321 0.617,-16.109 0.293,-1.82 0.799,-3.268 1.319,-4.446 0.845,-1.918 1.689,-3.247 1.144,-4.333 -1.179,-2.35 -4.777,-3.27 -6,-2.109 -0.847,0.806 -1.222,2.263 -1.437,3.973 -6.942,-11.049 -17.957,-2.356 -19.514,8.27 -1.502,10.252 7.834,22.152 19.598,13.344" /></g><g
           transform="translate(48.8965,69.5794)"
           id="g64"><path
             id="path66"
             style="fill:#8ad039;fill-opacity:1;fill-rule:evenodd;stroke:none"
             d="m 0,0 c 0,0 0.148,-0.776 0.184,-1.896 0.105,-3.182 -0.76,-5.225 -3.006,-7.467 -0.457,-0.458 -0.976,-0.935 -1.554,-1.428 7.681,-4.776 11.692,-15.222 7.233,-22.522 -6.017,-9.835 -17.942,-7.597 -24.457,-0.865 -6.821,7.051 -5.917,16.172 -1.018,22.934 C -17.564,-4.268 -8.275,0.238 0,0 m -18.778,-40.891 c -6.813,2.229 -11.674,8.848 -12.866,15.784 -3.286,19.144 17.085,36.419 37.435,26.826 0.24,-4.3 -1.756,-10.419 -7.236,-12.258 27.201,-17.172 3.945,-52.35 -24.56,-40.782 -5.203,2.651 -2.424,7.499 3.136,4.691 6.209,-2.141 14.277,-2.141 19.361,0.666 3.279,1.792 6.213,4.243 8.278,7.374 0.58,0.88 1.351,2.196 1.962,3.631 0.432,1.015 1.821,5.203 0.743,5.656 -0.27,0.114 -0.413,-0.207 -0.487,-0.507 -0.687,-2.781 -2.039,-5.187 -3.894,-7.355 -2.18,-2.545 -4.929,-4.483 -8.403,-5.749 -4.064,-1.482 -8.774,-1.668 -15.253,-0.251 0.428,0.463 1.286,1.751 1.784,2.274" /></g><g
           transform="translate(39.44,38.3821)"
           id="g68"><path
             id="path70"
             style="fill:#231f20;fill-opacity:1;fill-rule:evenodd;stroke:none"
             d="M 0,0 C 13.263,-0.484 6.908,13.081 -1.801,16.079 -10.433,19.05 -15.231,0.001 0,0 M -13.695,9.604 C -12.233,24.2 4.562,27.094 10.808,7.637 15.845,-12.36 -16.01,-8.01 -13.695,9.604" /></g></g></g></g></svg>