<?xml version="1.0" encoding="UTF-8" standalone="no"?>
<svg
   xmlns:dc="http://purl.org/dc/elements/1.1/"
   xmlns:cc="http://creativecommons.org/ns#"
   xmlns:rdf="http://www.w3.org/1999/02/22-rdf-syntax-ns#"
   xmlns:svg="http://www.w3.org/2000/svg"
   xmlns="http://www.w3.org/2000/svg"
   viewBox="0 0 381.22501 119.625"
   height="119.625"
   width="381.22501"
   xml:space="preserve"
   version="1.1"
   id="svg2"><metadata
     id="metadata8"><rdf:RDF><cc:Work
         rdf:about=""><dc:format>image/svg+xml</dc:format><dc:type
           rdf:resource="http://purl.org/dc/dcmitype/StillImage" /></cc:Work></rdf:RDF></metadata><defs
     id="defs6"><clipPath
       id="clipPath18"
       clipPathUnits="userSpaceOnUse"><path
         id="path20"
         d="M 0,956.969 0,0 l 3049.76,0 0,956.969 -3049.76,0 z" /></clipPath></defs><g
     transform="matrix(1.25,0,0,-1.25,0,119.625)"
     id="g10"><g
       transform="scale(0.1,0.1)"
       id="g12"><g
         id="g14"><g
           clip-path="url(#clipPath18)"
           id="g16"><path
             id="path22"
             style="fill:#f1471d;fill-opacity:1;fill-rule:evenodd;stroke:none"
             d="m 1455.38,956.969 c 264.16,0 478.3,-140.785 478.3,-314.446 0,-173.66 -214.14,-314.441 -478.3,-314.441 -33.14,0 -65.49,2.215 -96.73,6.434 73.4,78.64 119.23,190.113 119.23,313.757 0,118.329 -41.98,225.512 -109.92,303.438 28.35,3.437 57.56,5.258 87.42,5.258" /><path
             id="path24"
             style="fill:#5a5a62;fill-opacity:1;fill-rule:evenodd;stroke:none"
             d="m 1270.82,867.602 c 92.81,0 168.05,-100.77 168.05,-225.079 0,-124.308 -75.24,-225.085 -168.05,-225.085 -11.64,0 -23.01,1.585 -33.98,4.609 25.78,56.289 41.89,136.082 41.89,224.59 0,84.703 -14.76,161.426 -38.62,217.207 9.95,2.461 20.22,3.758 30.71,3.758" /><path
             id="path26"
             style="fill:#5a5a62;fill-opacity:1;fill-rule:evenodd;stroke:none"
             d="m 1145.85,764.141 c 46.25,0 83.73,-54.45 83.73,-121.621 0,-67.168 -37.48,-121.622 -83.73,-121.622 -5.8,0 -11.46,0.86 -16.93,2.493 12.85,30.414 20.87,73.535 20.87,121.351 0,45.77 -7.34,87.227 -19.24,117.367 4.97,1.332 10.08,2.032 15.3,2.032" /><path
             id="path28"
             style="fill:#f1461e;fill-opacity:1;fill-rule:evenodd;stroke:none"
             d="m 2887.64,83.1992 c 0,8.6914 1.2,15.8555 3.6,21.4918 2.4,5.641 5.73,10.075 9.99,13.313 4.26,3.23 9.44,5.496 15.56,6.797 6.11,1.289 12.88,1.937 20.3,1.937 l 112.33,0 0,38.551 -123.46,0 c -30.57,0 -53.23,-7.258 -67.96,-21.769 -14.74,-14.516 -22.11,-34.622 -22.11,-60.3208 0,-15.5273 2.18,-28.5664 6.55,-39.1015 4.37,-10.543 10.42,-19.0938 18.18,-25.6563 7.75,-6.5625 17.03,-11.27734 27.84,-14.14452 C 2899.26,1.42969 2911.11,0 2923.98,0 l 125.78,0 0,101.504 -51.43,0 0,-66.0079 -61.24,0 c -9.38,0 -17.25,0.6953 -23.58,2.082 -6.33,1.3867 -11.41,3.8828 -15.23,7.4844 -3.82,3.6094 -6.55,8.5078 -8.18,14.6992 -1.64,6.1953 -2.46,14.0078 -2.46,23.4375 z m -85.15,0 c 0,-15.5273 -2.19,-28.5664 -6.55,-39.1015 -4.38,-10.543 -10.43,-19.0938 -18.18,-25.6563 C 2770.01,11.8789 2760.78,7.16406 2750.09,4.29688 2739.38,1.42969 2727.6,0 2714.72,0 l -126.1,0 0,165.289 124.13,0 c 30.35,0 52.89,-7.258 67.63,-21.769 14.74,-14.516 22.11,-34.622 22.11,-60.3208 l 0,0 z M 2701.61,35.4961 c 7.42,0 13.87,0.4648 19.33,1.3906 5.46,0.9219 10.1,2.4922 13.91,4.711 3.83,2.2226 6.88,5.1796 9.17,8.875 2.3,3.6992 3.99,8.2265 5.08,13.5898 l -108.73,0 0,-28.5664 61.24,0 0,0 z m -61.24,91.2419 0,-25.234 108.08,0 c -2.84,9.613 -8.35,16.223 -16.55,19.828 -8.18,3.606 -18.28,5.406 -30.29,5.406 l -61.24,0 0,0 z M 2507.07,17.4727 c 0,-4.8047 2.3,-8.91801 6.88,-12.33989 C 2518.54,1.71094 2524.43,0 2531.64,0 c 6.98,0 12.88,1.71094 17.69,5.13281 4.79,3.42188 7.19,7.53519 7.19,12.33989 0,4.8086 -2.4,8.9179 -7.19,12.3437 -4.81,3.418 -10.71,5.125 -17.69,5.125 -7.21,0 -13.1,-1.707 -17.69,-5.125 -4.58,-3.4258 -6.88,-7.5351 -6.88,-12.3437 l 0,0 z m -145.74,110.6523 61.57,0 0,-63.2305 -102.83,0 0,33.2813 c 0.87,3.3282 2.29,6.7462 4.26,10.2582 1.96,3.515 4.58,6.754 7.86,9.711 3.27,2.953 7.25,5.355 11.95,7.207 4.69,1.851 10.42,2.773 17.19,2.773 l 0,0 z M 2319.74,0 l 0,28.2852 103.49,0 0,-28.2852 51.75,0 0,165.289 -133.3,0 c -10.48,0 -20.15,-2.035 -28.98,-6.105 -8.85,-4.067 -16.49,-9.336 -22.93,-15.805 -6.44,-6.469 -11.46,-13.774 -15.06,-21.91 -3.61,-8.133 -5.41,-16.36 -5.41,-24.6838 l 0,-96.7852 50.44,0 0,0 z m -83.52,0 -51.75,0 0,165.289 51.75,0 0,-165.289 z m -134.93,83.1992 c 0,-9.4297 -0.82,-17.2422 -2.45,-23.4375 -1.64,-6.1914 -4.43,-11.0898 -8.36,-14.6992 -3.93,-3.6016 -9.05,-6.0977 -15.39,-7.4844 -6.33,-1.3867 -14.08,-2.082 -23.25,-2.082 l -61.24,0 0,91.2419 61.24,0 c 7.42,0 14.2,-0.648 20.3,-1.937 6.11,-1.301 11.3,-3.567 15.56,-6.797 4.25,-3.238 7.58,-7.672 9.99,-13.313 2.4,-5.6363 3.6,-12.8004 3.6,-21.4918 l 0,0 z m 51.42,0 c 0,25.6988 -7.37,45.8048 -22.1,60.3208 -14.75,14.511 -37.29,21.769 -67.64,21.769 l -124.12,0 0,-165.289 126.09,0 c 12.88,0 24.67,1.42969 35.37,4.29688 10.7,2.86718 19.92,7.58202 27.67,14.14452 7.75,6.5625 13.82,15.1133 18.18,25.6563 4.37,10.5351 6.55,23.5742 6.55,39.1015 l 0,0 z M 1905.44,0 1787.54,0 c -13.76,0 -25.44,1.89453 -35.04,5.6875 -9.61,3.78906 -17.42,9.2461 -23.42,16.3594 -6,7.1172 -10.32,15.8047 -12.94,26.0664 -2.61,10.2656 -3.93,21.9609 -3.93,35.0859 0,25.6988 5.9,45.8048 17.68,60.3208 11.79,14.511 30.03,21.769 54.7,21.769 l 120.85,0 0,-37.164 -103.16,0 c -6.99,0 -12.83,-0.691 -17.52,-2.078 -4.7,-1.391 -8.52,-3.234 -11.47,-5.551 -2.95,-2.308 -5.13,-5.082 -6.55,-8.316 -1.42,-3.235 -2.24,-6.7 -2.45,-10.403 l 113.97,0 0,-37.4372 -113.97,0 c 0.43,-8.6914 3.76,-15.3007 9.99,-19.8281 6.22,-4.5312 15.55,-6.7929 28,-6.7929 l 103.16,0 0,-37.7188 z m -226.96,0 -51.1,0 0,91.5195 c 0,4.6172 -0.44,9.1055 -1.31,13.4535 -0.86,4.34 -2.89,8.226 -6.05,11.644 -3.16,3.418 -7.92,6.196 -14.25,8.321 -6.33,2.128 -14.96,3.187 -25.88,3.187 l -23.24,0 c 3.06,-4.988 5.13,-10.121 6.22,-15.391 1.09,-5.269 1.63,-10.586 1.63,-15.9488 l 0,-96.7852 -50.76,0 0,91.5195 c 0,4.8047 -0.27,9.4255 -0.82,13.8675 -0.54,4.437 -2.02,8.32 -4.41,11.644 -2.42,3.332 -5.96,6.012 -10.65,8.043 -4.7,2.035 -11.19,3.051 -19.49,3.051 l -27.51,0 0,-128.125 -52.4,0 0,165.289 206.98,0 c 10.49,0 20.15,-1.758 28.98,-5.269 8.85,-3.512 16.65,-9.059 23.43,-16.641 13.75,-14.055 20.63,-29.578 20.63,-46.5938 L 1678.48,0 Z m -426.09,126.738 c -12.01,0 -22.16,-1.758 -30.46,-5.269 -8.3,-3.516 -13.97,-9.891 -17.03,-19.133 l 160.16,0 0,-20.2462 c 0,-25.6992 -7.37,-45.8046 -22.11,-60.3164 C 1328.21,7.25781 1305.67,0 1275.32,0 l -123.8,0 0,38.5508 112.66,0 c 12.01,0 22.11,1.8945 30.3,5.6836 8.18,3.789 13.69,10.5859 16.54,20.3828 l -159.83,0 0,18.582 c 0,25.6988 7.37,45.8048 22.11,60.3208 14.74,14.511 37.39,21.769 67.95,21.769 l 76.31,0 0,-38.551 -65.17,0 0,0 z m -134.61,1.387 0,37.164 -191.26,0 0,-37.164 69.433,0 0,-128.125 50.767,0 0,128.125 71.06,0 0,0 z M 893.113,0 l 0,96.7852 c 0,8.5078 -1.636,16.5938 -4.91,24.2698 -3.277,7.672 -8.406,15.113 -15.394,22.324 -6.547,7.582 -14.301,13.129 -23.254,16.641 -8.953,3.511 -18.559,5.269 -28.825,5.269 l -133.292,0 0,-165.289 52.074,0 0,128.125 61.574,0 c 8.734,0 15.773,-1.016 21.121,-3.051 5.352,-2.031 9.551,-4.711 12.606,-8.043 3.058,-3.324 5.136,-7.207 6.226,-11.644 1.094,-4.442 1.637,-9.0628 1.637,-13.8675 l 0,-91.5195 50.437,0 0,0 z M 654.031,0 536.129,0 c -13.758,0 -25.438,1.89453 -35.039,5.6875 -9.61,3.78906 -17.418,9.2461 -23.418,16.3594 -6.008,7.1172 -10.317,15.8047 -12.942,26.0664 -2.617,10.2656 -3.929,21.9609 -3.929,35.0859 0,25.6988 5.898,45.8048 17.683,60.3208 11.793,14.511 30.028,21.769 54.7,21.769 l 120.847,0 0,-37.164 -103.164,0 c -6.984,0 -12.824,-0.691 -17.523,-2.078 -4.696,-1.391 -8.516,-3.234 -11.465,-5.551 -2.941,-2.308 -5.125,-5.082 -6.547,-8.316 -1.414,-3.235 -2.234,-6.7 -2.457,-10.403 l 113.977,0 0,-37.4372 -113.977,0 c 0.438,-8.6914 3.766,-15.3007 9.992,-19.8281 6.219,-4.5312 15.555,-6.7929 28,-6.7929 l 103.164,0 0,-37.7188 z m -217.793,165.84 -54.695,0 -55.348,-123.4064 -54.691,123.4064 -54.371,0 L 291.152,0 l 70.743,0 74.343,165.84 0,0 z M 193.227,0 75.3242,0 C 61.5742,0 49.8867,1.89453 40.2813,5.6875 30.6719,9.47656 22.8672,14.9336 16.8633,22.0469 10.8594,29.1641 6.54688,37.8516 3.92578,48.1133 1.3125,58.3789 0,70.0742 0,83.1992 0,108.898 5.89453,129.004 17.6836,143.52 c 11.7891,14.511 30.0273,21.769 54.6953,21.769 l 120.8481,0 0,-37.164 -103.1645,0 c -6.9844,0 -12.8281,-0.691 -17.5195,-2.078 -4.6953,-1.391 -8.5157,-3.234 -11.4649,-5.551 -2.9492,-2.308 -5.1289,-5.082 -6.5468,-8.316 -1.4219,-3.235 -2.2422,-6.7 -2.461,-10.403 l 113.9767,0 0,-37.4372 -113.9767,0 c 0.4414,-8.6914 3.7695,-15.3007 9.9883,-19.8281 6.2266,-4.5312 15.5586,-6.7929 28.0039,-6.7929 l 103.1645,0 0,-37.7188" /></g></g></g></g></svg>