<?xml version="1.0" encoding="UTF-8" standalone="no"?>
<svg
   xmlns:dc="http://purl.org/dc/elements/1.1/"
   xmlns:cc="http://creativecommons.org/ns#"
   xmlns:rdf="http://www.w3.org/1999/02/22-rdf-syntax-ns#"
   xmlns:svg="http://www.w3.org/2000/svg"
   xmlns="http://www.w3.org/2000/svg"
   viewBox="0 0 208.74667 294.26666"
   height="294.26666"
   width="208.74667"
   xml:space="preserve"
   id="svg2"
   version="1.1"><metadata
     id="metadata8"><rdf:RDF><cc:Work
         rdf:about=""><dc:format>image/svg+xml</dc:format><dc:type
           rdf:resource="http://purl.org/dc/dcmitype/StillImage" /></cc:Work></rdf:RDF></metadata><defs
     id="defs6" /><g
     transform="matrix(1.3333333,0,0,-1.3333333,0,294.26667)"
     id="g10"><g
       transform="scale(0.1)"
       id="g12"><path
         id="path14"
         style="fill:#565353;fill-opacity:1;fill-rule:nonzero;stroke:none"
         d="m 594.387,2187.28 c 2.09,-0.8 2.793,-2.3 2.168,-4.67 -0.688,-1.82 -2.285,-2.48 -4.961,-1.97 -1.781,0.68 -2.406,2.32 -1.977,4.92 0.625,1.62 2.192,2.18 4.77,1.72 z m -6.86,0.06 c -0.797,-4.03 0.434,-6.7 3.618,-7.9 3.203,-1.24 5.918,-0.07 7.832,3.33 0.82,4.09 -0.215,6.76 -3.301,7.84 l -0.903,0.35 c -2.437,0.86 -4.683,-0.12 -6.675,-3.07 z m 12.246,16.99 0.879,-0.32 c 10.039,-3.75 19.258,-10.97 27.715,-21.72 1.645,-2.28 4.399,-4.16 8.344,-5.56 13.125,-7.05 22.144,-12.73 27.227,-17.13 5.41,-4.8 7.695,-8.12 7.085,-9.96 -1.226,-1.38 -5.543,-2.21 -12.988,-2.46 -14.707,0.62 -24.258,1.77 -29.004,3.52 -8.551,1.14 -14.801,0.32 -18.593,-2.41 -5.293,-3.81 -9.333,-9.37 -12.008,-16.67 l -1.02,-2.46 c -4.922,-13.38 -7.207,-32.66 -6.695,-57.96 -1.113,-22.86 -5.703,-44.99 -13.75,-66.33 -6.938,-18.71 -15.688,-35.15 -26.289,-49.23 -7.778,-8.91 -16.606,-17.03 -26.758,-24.36 -6.547,-4.51 -14.082,-8.8 -22.426,-12.79 -13.648,-5.86 -24.937,-9.63 -34.137,-11.28 -10.292,-2.17 -20.531,-3.42 -30.644,-3.87 -15.981,0 -25.18,0.38 -27.617,1.32 -1.172,0.2 -1.66,0.2 -1.758,-0.03 6.465,-70.72 17.184,-318.18 17.305,-320.95 l -0.121,-0.38 c -0.665,-1.78 -3.028,-2.89 -6.817,-3.37 -0.191,0.83 -11.109,249.59 -17.89,325.06 l -8.243,3.05 16.723,-336.68 c -0.117,-0.21 -1.953,0.25 -5.449,1.31 -6.66,71.49 -17.949,324.22 -19.028,336.94 -11.406,0.48 -39.668,6.3 -84.761,17.36 -21.621,3.65 -44.004,6.48 -67.367,8.49 -19.122,2.08 -50.387,-1.93 -93.692,-11.97 -16.719,-4.37 -29.058,-7.52 -37.207,-9.32 -3.7304,-0.74 -6.5038,-0.61 -8.5898,0.08 l -0.2773,0.1 c -1.5625,0.86 -2.2031,1.65 -1.9102,2.44 2.4414,4.9 18.0233,11.92 46.7583,21.16 3.375,1.01 25.933,8.32 67.554,21.93 15.981,4.26 45.317,14.99 88.031,32.1 23.883,11.19 44.375,21.9 61.583,31.91 23.003,12.69 46.011,25.97 69,39.79 15.214,9.65 28.847,19.8 40.941,30.63 16.758,14.57 34.273,32.42 52.359,53.71 2.641,3.19 8.75,10.98 18.418,23.36 9.614,11.42 17.129,19.73 22.5,24.89 14.399,10.66 28.574,13.33 42.617,8.06" /><path
         id="path16"
         style="fill:#12b0b4;fill-opacity:1;fill-rule:nonzero;stroke:none"
         d="M 172.18,303.32 171.941,-0.0117188 H 500.73 L 500.984,302.988 172.18,303.32" /><path
         id="path18"
         style="fill:#12b0b4;fill-opacity:1;fill-rule:nonzero;stroke:none"
         d="m 1339.37,507.191 c -54.63,51.95 -121.9,78.028 -201.8,78.079 -75.98,0.05 -141,-26.29 -195.215,-79.098 -54.257,-52.731 -81.386,-116.16 -81.449,-190.25 -0.039,-75.102 27.699,-138.75 83.266,-190.684 55.547,-52.0388 123.628,-78.0271 204.338,-78.1091 74.1,-0.0703 138.06,26.4024 191.91,79.3511 53.87,52.961 80.82,115.95 80.86,188.918 0.08,75.883 -27.25,139.793 -81.91,191.793" /><path
         id="path20"
         style="fill:#12b0b4;fill-opacity:1;fill-rule:nonzero;stroke:none"
         d="M 172.18,303.32 171.941,-0.0117188 H 500.73 L 500.984,302.988 172.18,303.32" /><path
         id="path22"
         style="fill:#12b0b4;fill-opacity:1;fill-rule:nonzero;stroke:none"
         d="m 1339.37,507.191 c -54.63,51.95 -121.9,78.028 -201.8,78.079 -75.98,0.05 -141,-26.29 -195.215,-79.098 -54.257,-52.731 -81.386,-116.16 -81.449,-190.25 -0.039,-75.102 27.699,-138.75 83.266,-190.684 55.547,-52.0388 123.628,-78.0271 204.338,-78.1091 74.1,-0.0703 138.06,26.4024 191.91,79.3511 53.87,52.961 80.82,115.95 80.86,188.918 0.08,75.883 -27.25,139.793 -81.91,191.793" /><path
         id="path24"
         style="fill:#12b0b4;fill-opacity:1;fill-rule:nonzero;stroke:none"
         d="m 865.73,1210.46 c -0.054,-75.16 27.661,-138.59 83.247,-190.57 55.523,-51.929 123.513,-77.98 204.083,-78.07 74.04,-0.07 137.95,26.379 191.79,79.35 53.81,52.93 80.71,115.83 80.8,188.77 0.08,75.74 -27.22,139.64 -81.85,191.58 -54.63,51.93 -121.82,77.95 -201.66,78.05 -75.84,0.05 -140.82,-26.26 -195.038,-79.07 -54.122,-52.75 -81.289,-116.07 -81.372,-190.04" /><path
         id="path26"
         style="fill:#12b0b4;fill-opacity:1;fill-rule:nonzero;stroke:none"
         d="m 1523.99,1264.27 c 2.47,-17.65 3.66,-35.86 3.66,-54.61 -0.1,-99.51 -36.82,-185.33 -110.28,-257.488 -73.41,-72.32 -160.6,-108.383 -261.62,-108.301 -109.96,0.129 -202.73,35.699 -278.395,106.52 -75.824,70.899 -113.671,157.439 -113.632,259.999 0.093,100.93 37.129,187.29 111.035,259.31 73.926,71.99 162.612,107.87 266.092,107.79 29.61,-0.02 57.91,-2.71 84.96,-7.94 L 782.844,2023.1 345.105,1572.82 h 1.958 c 39.16,-0.17 91.289,-7.48 129.355,-24.36 39.937,-17.68 74.352,-40.83 101.387,-74.02 l -80.41,-60.92 c -21.172,20.88 -40.375,36.47 -57.637,46.71 -17.231,10.33 -42.129,15.49 -74.692,15.49 -35.64,0.05 -64.492,-7.52 -86.699,-22.76 -22.183,-15.24 -33.179,-34.88 -33.179,-58.93 -0.059,-20.81 9.585,-39.18 28.882,-55.21 19.375,-15.94 52.309,-33.47 98.891,-52.46 46.617,-19 82.852,-36.76 108.848,-53.11 25.957,-16.39 47.222,-34.48 63.828,-54.28 16.66,-19.76 29.043,-40.64 37.246,-62.53 8.101,-22.01 12.144,-45.2 12.129,-69.62 -0.063,-57.211 -22.016,-105.898 -65.879,-146.172 -43.93,-40.199 -96.938,-60.277 -159.238,-60.226 -60.747,0.078 -114.336,15.906 -160.864,47.398 -46.465,31.481 -82.183,78.789 -107.168,141.72 l 99.121,26.38 c 35.981,-77.342 91.196,-116.092 165.61,-116.182 35.996,-0.008 66.035,10.172 90.039,30.551 23.887,20.481 35.894,46.261 35.933,77.501 0,18.67 -6.265,37.37 -18.882,56.23 -12.461,18.9 -27.993,34.39 -46.621,46.64 -18.657,12.2 -48.208,26.2 -88.833,42.04 -40.601,15.83 -71.851,30.3 -93.75,43.44 -21.89,13.15 -40.835,28.8 -56.792,47.05 -16.016,18.07 -27.7,36.19 -35.137,54.17 -3.75,9.16 -6.567,18.6 -8.403,28.38 l -0.039,0.22 L 0.0117188,1217.75 0.300781,-0.0117188 H 78.0352 L 78.5664,660.781 l 93.8826,-0.121 -0.215,-264.469 328.852,-0.32 0.191,264.52 92.817,-0.11 -0.508,-660.2927188 H 947.645 C 921.301,15.6094 896.395,34.7813 873.137,57.5898 799.387,129.941 762.566,217.5 762.645,320.332 c 0.097,99.258 37.621,184.246 112.543,254.988 74.917,70.77 164.882,106.149 269.982,106.071 102.55,-0.071 190.89,-35.93 265,-107.282 74.08,-71.5 111.01,-156.257 110.97,-254.429 -0.08,-103.95 -36.79,-191.75 -110.02,-263.43 -22.81,-22.2109 -47.16,-40.9414 -73.1,-56.2617188 h 227.52 l 0.08,1221.7017188 -41.63,42.58" /></g></g></svg>