<?xml version="1.0" encoding="UTF-8" standalone="no"?>
<svg
   xmlns:dc="http://purl.org/dc/elements/1.1/"
   xmlns:cc="http://creativecommons.org/ns#"
   xmlns:rdf="http://www.w3.org/1999/02/22-rdf-syntax-ns#"
   xmlns:svg="http://www.w3.org/2000/svg"
   xmlns="http://www.w3.org/2000/svg"
   viewBox="0 0 285.14667 43.439999"
   height="43.439999"
   width="285.14667"
   xml:space="preserve"
   id="svg2"
   version="1.1"><metadata
     id="metadata8"><rdf:RDF><cc:Work
         rdf:about=""><dc:format>image/svg+xml</dc:format><dc:type
           rdf:resource="http://purl.org/dc/dcmitype/StillImage" /></cc:Work></rdf:RDF></metadata><defs
     id="defs6" /><g
     transform="matrix(1.3333333,0,0,-1.3333333,0,43.44)"
     id="g10"><g
       transform="scale(0.1)"
       id="g12"><path
         id="path14"
         style="fill:#44be88;fill-opacity:1;fill-rule:nonzero;stroke:none"
         d="m 1559.33,137.855 v -9.882 c 0,-30.3519 -24.7,-55.0589 -55.06,-55.0589 -30.37,0 -55.08,24.707 -55.08,55.0589 v 30.254 c 0,30.355 24.71,55.062 55.08,55.062 30.36,0 55.06,-24.707 55.06,-55.062 z m -55.06,95.2 c -41.27,0 -74.84,-33.571 -74.84,-74.828 v -30.254 c 0,-41.2503 33.57,-74.8246 74.84,-74.8246 21.79,0 41.38,9.4141 55.06,24.336 v -24.336 h 19.76 v 74.8246 9.882 20.372 c 0,41.257 -33.56,74.828 -74.82,74.828" /><path
         id="path16"
         style="fill:#44be88;fill-opacity:1;fill-rule:nonzero;stroke:none"
         d="m 1314.24,233.055 c -21.79,0 -41.38,-9.418 -55.07,-24.336 v 64.914 h -19.76 V 158.227 116.828 53.1484 h 19.76 v 63.6796 41.399 c 0,30.355 24.71,55.062 55.07,55.062 30.37,0 55.07,-24.707 55.07,-55.062 V 53.1484 h 19.76 V 158.227 c 0,41.257 -33.56,74.828 -74.83,74.828" /><path
         id="path18"
         style="fill:#44be88;fill-opacity:1;fill-rule:nonzero;stroke:none"
         d="m 1697.01,233.055 c -21.78,0 -41.37,-9.418 -55.06,-24.336 v 24.336 h -19.77 v -74.828 -9.883 -95.1956 h 19.77 v 95.1956 9.883 c 0,30.355 24.7,55.062 55.06,55.062 30.36,0 55.07,-24.707 55.07,-55.062 V 53.1484 h 19.77 V 158.227 c 0,41.257 -33.57,74.828 -74.84,74.828" /><path
         id="path20"
         style="fill:#44be88;fill-opacity:1;fill-rule:nonzero;stroke:none"
         d="m 1116.54,233.055 c -21.79,0 -41.38,-9.418 -55.07,-24.336 v 24.336 h -19.76 v -74.828 -9.883 -95.1956 h 19.76 v 95.1956 9.883 c 0,30.355 24.7,55.062 55.07,55.062 30.37,0 55.06,-24.707 55.06,-55.062 V 53.1484 h 19.77 V 158.227 c 0,41.257 -33.57,74.828 -74.83,74.828" /><path
         id="path22"
         style="fill:#44be88;fill-opacity:1;fill-rule:nonzero;stroke:none"
         d="m 1887.03,72.9141 c -30.36,0 -55.06,24.707 -55.06,55.0589 v 30.254 c 0,30.355 24.7,55.062 55.06,55.062 23.33,0 44.21,-14.769 51.97,-36.762 l 18.64,6.563 c -10.53,29.89 -38.9,49.965 -70.61,49.965 -41.26,0 -74.82,-33.571 -74.82,-74.828 v -30.254 c 0,-41.2503 33.56,-74.8246 74.82,-74.8246 31.75,0 60.14,20.1094 70.64,50.0396 l -18.65,6.542 c -7.74,-22.023 -28.62,-36.8159 -51.99,-36.8159" /><path
         id="path24"
         style="fill:#44be88;fill-opacity:1;fill-rule:nonzero;stroke:none"
         d="m 2118.84,233.055 v -75.043 c 0,-14.778 -5.8,-28.66 -16.37,-39.129 l -38.71,-38.7111 -38.74,38.7261 c -10.53,10.442 -16.32,24.336 -16.32,39.114 v 75.043 h -19.76 v -75.043 c 0,-20.086 7.87,-38.965 22.15,-53.117 l 52.67,-52.6723 52.66,52.6563 c 14.3,14.18 22.19,33.047 22.19,53.133 v 75.043 h -19.77" /><path
         id="path26"
         style="fill:#44be88;fill-opacity:1;fill-rule:nonzero;stroke:none"
         d="m 871.445,155.871 h 121.172 v 19.77 H 871.445 v 78.226 h 126.993 v 19.766 H 851.68 V 175.641 155.871 53.1484 h 149.67 V 72.9141 H 871.445 v 82.9569" /><path
         id="path28"
         style="fill:#44be88;fill-opacity:1;fill-rule:nonzero;stroke:none"
         d="m 530.617,3.91016 0.93,0.90625 c 0.375,0.41015 0.691,0.8125 0.988,1.21093 0.301,0.41016 0.598,0.85157 0.86,1.28907 l 0.718,1.07422 110.485,207.60537 c 5.664,10.676 8.664,22.774 8.664,34.984 0,41.247 -33.551,74.801 -74.797,74.801 -17.742,0 -34.961,-6.328 -48.488,-17.828 l -0.938,-0.836 -109.418,-96.121 8.512,-8.504 c 0.555,-0.484 1.152,-1.082 1.836,-1.859 5.082,-5.766 14.289,-6.473 20.219,-1.738 l 98.648,86.695 c 8.324,7.09 18.812,10.953 29.629,10.953 25.125,0 45.558,-20.438 45.558,-45.563 0,-7.523 -1.761,-14.679 -5.242,-21.253 L 517.219,38.9609 278.059,278.129 c -30.758,30.769 -71.68,47.719 -115.211,47.719 -43.524,0 -84.4378,-16.95 -115.1957,-47.719 C 16.9258,247.406 0,206.492 0,162.926 0,119.359 16.9258,78.4414 47.6523,47.7188 78.4102,16.9453 119.324,0.00390625 162.848,0.00390625 c 43.257,0 83.984,16.76559375 114.672,47.18749375 l 61.578,54.1216 -8.383,8.378 c -0.59,0.516 -1.211,1.141 -1.93,1.961 -5.125,5.813 -14.859,6.489 -20.707,1.328 L 258.074,69.0469 C 232.145,43.1406 198.566,29.2422 162.848,29.2422 c -35.711,0 -69.2933,13.8984 -94.5199,39.1484 -25.2109,25.2071 -39.0976,58.7934 -39.0976,94.5354 0,35.746 13.8867,69.324 39.0976,94.527 25.2266,25.254 58.8089,39.156 94.5199,39.156 35.718,0 69.297,-13.902 94.543,-39.156 L 510.516,4.32813 c 0.902,-0.73829 1.312,-1.07032 1.738,-1.38672 0.351,-0.26172 0.766,-0.54688 1.195,-0.8086 l 1.09,-0.55859 c 0.656,-0.32031 1.106,-0.49609 1.563,-0.664064 0.41,-0.136718 0.843,-0.261718 1.289,-0.371093 0.492,-0.113282 0.984,-0.203125 1.488,-0.28125 0.387,-0.046875 0.863,-0.109375 1.348,-0.125 l 1.16,-0.1093755 c 0.664,0.1484375 1.16,0.1875005 1.656,0.2617185 0.391,0.0625 0.852,0.148438 1.305,0.273438 0.504,0.128906 0.902,0.226562 1.289,0.382812 0.476,0.156254 0.902,0.339844 1.347,0.546874 0.504,0.23438 0.883,0.42969 1.258,0.65235 0.438,0.2539 0.789,0.5 1.141,0.76171 0.449,0.31641 0.847,0.64844 1.234,1.00782" /></g></g></svg>