<?xml version="1.0" encoding="UTF-8" standalone="no"?>
<svg
   xmlns:dc="http://purl.org/dc/elements/1.1/"
   xmlns:cc="http://creativecommons.org/ns#"
   xmlns:rdf="http://www.w3.org/1999/02/22-rdf-syntax-ns#"
   xmlns:svg="http://www.w3.org/2000/svg"
   xmlns="http://www.w3.org/2000/svg"
   viewBox="0 0 798.17334 388.22668"
   height="388.22668"
   width="798.17334"
   xml:space="preserve"
   id="svg2"
   version="1.1"><metadata
     id="metadata8"><rdf:RDF><cc:Work
         rdf:about=""><dc:format>image/svg+xml</dc:format><dc:type
           rdf:resource="http://purl.org/dc/dcmitype/StillImage" /></cc:Work></rdf:RDF></metadata><defs
     id="defs6" /><g
     transform="matrix(1.3333333,0,0,-1.3333333,0,388.22667)"
     id="g10"><g
       transform="scale(0.1)"
       id="g12"><path
         id="path14"
         style="fill:#f14358;fill-opacity:1;fill-rule:nonzero;stroke:none"
         d="m 1895.98,2491.93 c -3.01,-0.14 -3.14,2.84 -6.17,2.7 l -2.97,-0.16 -3.13,2.85 -1.17,23.81 c -3.13,2.83 -9.27,5.51 -12.7,14.31 -0.7,14.86 1.66,26.92 7.5,30.2 2.96,0.16 3.13,-2.83 3.13,-2.83 l 0.13,-2.98 c 0,0 3,0.14 6.27,-5.65 6.13,-2.69 6.44,-8.63 6.73,-14.59 l 0.61,-11.91 -2.83,-3.13 0.13,-2.98 c 2.96,0.15 5.96,0.31 9.1,-2.52 z m -202.04,-16.72 c -19.32,-129.57 -347.36,-158.43 -347.36,-158.43 0,0 19.31,219.17 65.82,303.24 72.52,131.11 300.86,-15.23 281.54,-144.81 z M 708.266,2289.05 c -33.446,39.54 -27.879,92.52 -23.719,142.75 2.113,25.53 -4.129,60.28 0.348,71.83 13.3,34.28 56.222,31.94 109.964,11.61 53.739,-20.34 206.821,-263.73 206.821,-263.73 -95.086,-14.05 -242.969,-22.08 -293.414,37.54 z m 25.703,402.24 c 2.918,0.57 3.504,-2.36 3.504,-2.36 l 0.554,-2.93 c 0,0 2.95,0.57 7.008,-4.71 6.449,-1.79 7.594,-7.63 8.735,-13.49 l 2.289,-11.69 -2.364,-3.5 0.555,-2.93 c 2.914,0.57 5.867,1.14 9.367,-1.2 l -0.734,-27.51 c -2.949,-0.57 -3.5,2.36 -6.492,1.79 l -2.914,-0.57 -3.5,2.37 -4.536,23.4 c -3.507,2.36 -9.957,4.15 -14.605,12.37 -2.805,14.6 -2.172,26.88 3.133,30.96 z m 53.883,-78.86 2.949,0.58 -0.551,2.91 c 3.5,-2.34 2.91,0.57 5.273,4.08 2.836,-14.62 2.172,-26.91 -5.5,-34.46 l -4.57,23.39 z m -132.489,-86.47 c -5.867,-1.12 -12.281,0.67 -19.879,8.3 l -3.429,17.58 c 0,0 -1.692,8.77 7.121,10.48 2.949,0.58 9.957,-4.13 17.515,-11.79 l 0.551,-2.92 c 1.696,-8.79 2.836,-14.65 -1.879,-21.65 z m 1117.597,226.81 c -3.45,0.68 -6.81,0.89 -9.65,0.61 -2.94,1.63 -4.41,2.44 -7.88,1.11 -5.91,3.3 -12.31,3.62 -16.73,6.08 -4.38,2.46 -8.26,7.9 -9.59,18.45 -0.54,2.23 -1.08,4.19 -1.59,5.93 -2.16,7.15 -4.17,10.39 -6.54,11.71 -4.43,2.47 -13.39,-2.34 -23.43,-13.1 l 16.06,17.21 c -0.65,2.66 -2.49,4.15 -4.19,5.79 -1.18,0.9 -2.3,1.89 -3.48,2.79 -2.99,1.3 -6.47,2.2 -11.41,2.12 -9.38,1.95 -14.33,1.44 -17.24,3.07 -1.48,0.83 -2.4,4.61 -0.79,13.53 l 0.4,2.21 c -3.75,2.6 -7.46,5.23 -11.24,7.74 l -0.36,-0.39 1.46,-0.81 -10.04,-10.79 c 0.92,5.07 -5.76,18.64 -10.53,24.27 -2.42,1.5 -4.82,3.12 -7.26,4.58 -3.55,0.98 -10.06,2.27 -24.69,4.72 l 5.68,6.08 c -32.7,18.08 -65.95,32.79 -98.85,41.71 -192.22,52.05 -223.3,-379.16 -313.09,-624.65 -11.2,6.85 -22.28,13.08 -32.94,18.19 -32.61,15.65 -62.93,-4.81 -88.73,-37.67 -12.59,20.69 -27.36,44.71 -43.98,71.27 -0.91,-0.6 -2.09,-0.89 -2.97,-1.51 -10.48,-5.38 -20.54,-6.85 -27.56,-3.09 3.03,5.25 6.06,10.46 13.91,14.48 3.07,2.93 4.77,5.19 5.88,7.22 -3.02,4.8 -6.14,9.7 -9.26,14.61 -2.62,0.59 -5.08,1.27 -9,1.2 -9.67,2.41 -15.584,4.88 -13.65,11.39 -3.727,-0.07 -8.535,1.12 -13.356,2.35 7.153,9.16 1.231,11.65 -15.16,8.75 8.266,7.94 6.477,14.35 -0.148,21.99 -5.496,6.36 -11,12.73 -12.801,19.13 5.644,6.58 6.074,10.48 6.074,10.48 4.137,3.94 4.531,7.83 -12.113,13.98 -5.946,2.49 -10.758,3.7 -12.965,6.24 0,0 -2.203,2.54 -1.805,6.41 -1.781,6.45 -2.461,11.59 -5.769,15.41 0.414,3.89 -2.887,7.73 -4.688,14.14 1.957,6.5 -0.254,9.05 -0.254,9.05 l -8.14,5.01 c -4.41,5.09 -10.344,7.57 -15.145,8.78 -2.207,2.54 -3.308,3.81 -7.031,3.73 -4.43,5.12 -10.344,7.6 -13.66,11.41 -3.285,3.81 -5.078,10.24 -2.739,20.62 0.247,2.27 0.415,4.3 0.512,6.11 0.418,7.46 -0.379,11.19 -2.148,13.24 -3.324,3.84 -13.383,2.36 -26.492,-4.34 l 20.964,10.72 c 0.289,2.67 -0.296,4.94 -1.304,7.04 -0.992,1.33 -1.957,2.58 -2.942,3.9 -2.359,2.16 -5.527,4.04 -10.066,5.6 -8.149,5.03 -12.981,6.24 -15.164,8.76 -1.102,1.28 -0.684,5.16 3.863,12.99 l 0.219,0.37 c -2.703,3.46 -5.41,6.96 -8.07,10.32 l -11.442,-5.87 c 1.914,3.29 1.422,12.47 0.051,19.94 -5.367,6.54 -10.645,12.82 -15.809,18.77 -3.226,1.9 -7.328,4.25 -12.757,7.32 l 4.293,2.18 c -25.665,28.54 -48.168,48.6 -64.915,54.94 -97.664,36.95 -162.882,-13.06 -187.05,-75.36 -24.168,-62.3 -64.227,-336.17 27.449,-444.53 77.18,-91.22 290.324,-56.65 458.978,-28.2 -19.98,-44.11 -31.87,-82.91 -31.87,-82.91 l 384.8,36.09 c 0,0 -32.38,32.35 -76.44,69.86 33.66,2.81 76.49,11.03 132.57,28.3 260.18,80.19 503.46,167.21 492.8,288.89 -4.01,45.73 -72.62,144.66 -167.05,232.33" /><path
         id="path16"
         style="fill:#231f20;fill-opacity:1;fill-rule:nonzero;stroke:none"
         d="m 2065.5,2059.67 c 1.15,-5.88 8.04,-25.8 11.54,-28.14 2.95,0.57 2.95,0.57 6.46,-1.78 l 8.81,1.71 c 5.86,1.12 8.77,1.69 12.28,-0.66 -1.15,5.86 -5.2,11.13 -8.11,10.56 -6.46,1.79 -9.96,4.17 -15.82,3.02 -9.96,4.14 -14.01,9.41 -13.35,21.7 -2.95,-0.57 -2.95,-0.57 -1.81,-6.41 z m -288.14,-226.02 3.4,-17.56 7.08,10.5 c -0.55,2.93 -3.5,2.35 -10.48,7.06 z m -5.67,-64.85 c 0.59,-2.93 8.14,-10.58 15.7,-18.23 l 2.47,18.71 c -7,4.7 -11.06,10 -14,9.44 z m -250.97,-88.2 c -0.55,2.91 -0.55,2.91 2.36,3.47 l -1.14,5.86 c -3.51,2.36 -3.51,2.36 -4.06,5.29 0,0 -0.59,2.93 -3.5,2.36 0,0 -2.91,-0.57 -4.06,5.29 -1.8,-6.43 -1.21,-9.37 -0.66,-12.3 -2.36,-3.48 -0.67,-12.26 5.2,-11.11 z m -100.45,62.47 c -2.98,-0.58 -14.12,-5.76 -18.84,-12.76 0.55,-2.92 4.65,-8.21 12.76,-18.77 7.08,10.49 8.37,19.84 6.08,31.53 z m -1188.243,-121.66 8.848,1.71 -2.246,11.69 -8.852,-1.71 z m 1057.863,181.39 18.14,0.48 c -2.84,14.62 -9.85,19.36 -22.13,20 z m -1.26,-103.5 7.08,10.48 -3.98,20.49 -12.28,0.66 c -8.78,-1.71 -12.94,-11.63 -10.69,-23.34 l 3.5,-2.36 c 6.46,-1.77 7.01,-4.7 9.92,-4.13 2.95,0.57 2.95,0.57 6.45,-1.8 z m -37.79,53.41 c 0.59,-2.94 4.09,-5.27 4.09,-5.27 l 3.5,-2.35 c 7.6,-7.65 11.1,-10.03 16.97,-8.89 9.36,-1.21 7.63,7.56 5.93,16.38 -3.5,2.32 -3.5,2.32 -6.41,1.77 l -8.82,-1.71 z M 301.324,1515.83 c 2.364,3.5 1.809,6.44 3.614,12.86 l -24.629,1.26 -8.887,-16.88 c -7.559,7.63 -3.508,2.36 11.617,-12.92 4.09,-5.3 8.149,-10.57 11.098,-10 5.859,1.14 4.754,6.99 6.523,13.4 1.809,6.44 1.254,9.35 0.664,12.28 z m 860.496,161.89 8.82,1.72 -3.4,17.55 -8.81,-1.71 z m -887.941,-112.32 -3.981,20.5 -14.679,-2.84 4.539,-23.41 8.812,1.69 c -0.59,2.92 -0.59,2.92 5.309,4.06 z m 801.801,116.86 c -4.64,8.2 -11.09,9.97 -19.87,8.28 l 2.25,-11.69 c -2.36,-3.5 -1.77,-6.44 -0.67,-12.28 l 11.07,-10.01 c 4.75,7 8.92,16.92 7.22,25.7 z M 1047,1594.68 c 8.22,4.65 12.39,14.57 7.19,25.72 -7.01,4.7 -9.96,4.13 -9.4,1.2 l -8.78,-1.69 z m -134.742,113.56 -2.949,-0.58 -2.399,-3.5 4.574,-23.39 c 7.672,7.55 8.332,19.83 5.493,34.45 -2.356,-3.5 -1.77,-6.41 -5.274,-4.07 z m -5.68,-159.02 -35.25,-6.84 c 2.399,3.5 5.309,4.07 4.758,6.98 -0.594,2.93 -0.594,2.93 1.805,6.44 l 2.914,0.57 c 0.554,-2.93 4.054,-5.29 9.918,-4.17 l 14.711,2.86 z m 1160.302,620.85 c 11.58,2.52 20.23,1.36 31.8,-8.41 2.87,-8.59 12.5,-12.63 22.19,-16.68 14.47,6.24 19.3,16.53 15.44,27.99 -7.69,10.6 -11.55,22.07 -11.54,34.38 -11.53,-2.54 -38.61,3.88 -39.55,6.74 -10.6,-17.72 -14.43,-18.57 -31.78,-16.21 -3.92,-0.87 -12.57,0.33 -24.15,-2.21 -7.71,-1.67 -15.42,-3.37 -29.88,-9.62 -8.7,1.18 -17.35,2.38 -25.05,0.68 -9.64,4.06 -17.4,2.36 -19.34,-4.21 -3.88,-0.85 -2.89,-3.73 -9.65,-8.3 0.99,-2.85 -1.9,-6.57 -4.83,-10.29 l -267.14,-43.05 c -16.38,11.78 -21.2,13.8 -20.26,10.92 0.99,-2.85 -0.96,-9.43 -6.73,-16.83 -8.65,1.16 -13.51,3.18 -20.26,10.91 l -35.7,-4.72 c -3.84,-13.16 -5.78,-19.71 -11.54,-14.83 l -14.46,6.05 -10.66,-17.7 -168.8,-27.72 c -10.58,6.9 -19.28,8.1 -26.93,6.41 -11.59,-2.52 -16.47,-12.83 -19.35,-16.53 0.99,-2.89 -2.89,-3.71 -2.89,-3.71 -7.71,-1.7 -22.16,4.36 -28.86,12.11 -14.52,-6.24 -25.11,-11.63 -37.62,0.99 -11.61,-27.14 -32.84,-25.62 -66.58,-23.78 -21.22,1.5 -34.73,4.69 -36.66,10.41 -6.73,-16.85 -8.68,-23.4 -16.39,-25.1 -0.93,2.86 -4.81,2.01 -4.81,2.01 l 3.88,0.85 c -20.27,10.95 -49.19,10.77 -53.07,9.92 -7.76,-1.7 -7.76,-1.7 -10.64,-5.41 -1.9,-6.57 -1.9,-6.57 -5.78,-7.42 l -10.57,6.92 c -1.95,-6.56 -8.67,-11.13 -20.3,-13.67 l -30.82,-6.75 c 3.88,0.85 -4.82,2.03 -28.92,-0.2 -11.59,-2.52 -16.403,-0.49 -16.403,-0.49 l -20.293,-13.68 c -5.777,-7.39 -13.48,-9.09 -17.359,-9.93 -3.828,-0.84 -11.582,-2.54 -21.223,1.49 -13.461,3.2 -18.281,5.23 -25.984,3.54 -3.875,-0.85 -7.754,-1.7 -6.816,-4.57 l -7.707,-1.69 5.796,-17.19 c -0.992,2.87 5.774,7.44 9.649,8.28 2.941,3.71 6.769,4.55 10.598,5.39 10.625,-6.91 16.386,-11.79 19.257,-20.39 2.883,3.72 67.578,33.25 86.825,37.46 7.75,1.7 12.56,-0.33 17.38,-2.34 4.82,-2.02 21.17,-1.51 55.92,6.09 16.35,0.51 24.11,2.21 32.8,1.03 4.82,-2.03 14.46,-6.05 15.41,3.38 2.89,3.72 6.77,4.55 24.16,2.2 l 3.82,-11.49 c 47.28,19.6 51.11,20.44 58.82,22.13 11.63,2.52 61.77,1.2 71.41,-2.85 l -4.86,14.35 -3.82,-0.84 -4.8,14.31 c 3.82,0.85 2.88,3.72 1.89,6.59 l 38.6,-16.2 c 14.45,-6.05 23.1,-7.23 26.98,-6.38 7.65,1.67 14.42,6.23 32.76,13.33 17.36,9.94 32.82,13.32 50.17,10.97 l 7.67,-22.94 c -4.8,14.34 0.03,24.63 11.66,27.17 7.71,1.69 20.23,1.36 46.27,-2.18 22.16,-4.36 38.56,-3.85 50.09,-1.33 11.59,2.54 22.18,7.93 37.69,11.32 2.89,3.72 6.71,4.56 14.42,6.25 6.76,4.53 17.41,9.94 32.82,13.33 l 18.29,7.09 c 0,0 7.76,1.7 21.22,-1.52 16.36,0.53 27.99,3.05 36.68,1.87 11.58,2.54 24.06,2.21 40.51,2.7 8.65,-1.16 16.35,0.53 16.35,0.53 7.71,1.7 14.47,6.24 25.11,11.65 27.95,15.32 36.65,14.17 42.41,9.29 0,0 8.69,-1.2 19.32,-8.1 16.35,0.54 35.64,4.75 54.93,8.96 23.16,5.08 39.52,5.59 51.13,-4.18 6.73,16.85 17.38,22.25 32.77,13.34 6.81,4.54 13.53,9.09 16.42,12.81 13.51,-3.21 24.1,2.18 37.63,11.31 8.66,11.12 19.26,16.52 31.83,16.19 z m -1222.138,-474.94 -7.121,-10.49 c 1.109,-5.87 5.754,-14.07 12.801,-18.77 9.363,-1.22 11.172,5.22 9.437,13.99 -0.55,2.92 -4.609,8.21 -15.117,15.27 z m -13.277,-57.25 -4.352,53.82 -14.636,-2.84 z m -74.52,-8.39 c 7.598,-7.63 14.012,-9.42 19.871,-8.3 4.723,6.99 3.579,12.86 1.887,21.65 l -0.558,2.92 c -7.559,7.66 -14.567,12.36 -17.512,11.79 -8.817,-1.71 -7.117,-10.49 -7.117,-10.49 z m 20.278,-41.61 c -10.508,7.08 -19.914,8.28 -25.219,4.22 -0.664,-12.28 3.984,-20.47 10.984,-25.2 l 14.68,2.85 c 2.395,3.51 1.254,9.36 -0.445,18.13 z m -92.254,67.13 2.836,-14.64 12.351,-0.63 -2.836,14.62 z m 1.547,54.96 4.054,-5.29 7.004,-4.72 0.188,30.4 c -2.914,-0.57 -5.309,-4.07 -8.227,-4.63 -5.863,-1.14 -8.812,-1.71 -7.668,-7.56 0.59,-2.93 1.141,-5.84 4.649,-8.2 z m -20.391,-161.88 c -2.363,-3.48 -2.363,-3.48 -1.809,-6.42 l -2.914,-0.57 1.145,-5.86 c -2.359,-3.5 -2.359,-3.5 -1.809,-6.41 2.84,-14.64 10.399,-22.28 22.125,-19.99 l -0.996,21.04 z m -0.074,455.49 c 11.722,2.27 17.586,3.41 17.035,6.35 -7.008,4.7 -13.461,6.48 -25.184,4.21 1.735,-8.77 5.235,-11.13 8.149,-10.56 z m -26.625,-317.95 c -5.309,-4.07 -5.938,-16.35 -3.137,-30.95 4.649,-8.23 11.098,-10.01 14.606,-12.38 l 4.535,-23.39 3.5,-2.38 2.918,0.57 c 2.98,0.57 3.539,-2.36 6.488,-1.79 l 0.738,27.51 c -3.508,2.34 -6.457,1.77 -9.367,1.2 l -0.555,2.93 2.364,3.5 -2.286,11.69 c -1.148,5.87 -2.292,11.71 -8.742,13.5 -4.058,5.27 -7.008,4.7 -7.008,4.7 l -0.55,2.94 c 0,0 -0.59,2.92 -3.504,2.35 z m 12.683,-128.1 2.95,0.57 -3.981,20.47 -17.625,-3.42 7.485,-22.84 8.816,1.72 z m -37.871,132.33 3.321,-32.77 11.761,2.29 1.289,24.54 c -5.855,-1.13 -5.855,-1.13 -6.414,1.79 -3.5,2.36 -7.007,4.72 -9.957,4.15 z m -9.918,-90 19.399,9.83 c -9.293,16.43 -16.852,24.08 -23.86,28.8 -2.359,-3.51 -1.214,-9.35 0.481,-18.13 z m -21.054,14.14 -8.778,-1.69 3.395,-17.57 8.812,1.69 z m 4.281,-69.01 -3.508,2.36 -1.695,8.78 c -5.899,-1.14 -8.262,-4.65 -7.703,-7.58 l -4.723,-6.98 c 8.109,-10.57 14.012,-9.43 17.629,3.42 z m -53.395,-7.34 c 1.692,-8.77 2.246,-11.7 5.75,-14.06 l 0.551,-2.91 23.492,4.57 c -0.554,2.91 -1.699,8.77 3.024,15.74 -4.059,5.28 -5.199,11.14 -8.703,13.5 l 5.308,4.05 -4.648,8.23 c -3.5,2.36 -12.274,0.65 -23.485,-4.57 -1.808,-6.42 -3.582,-12.84 -1.289,-24.55 z m -16.191,36.35 -4.164,-9.92 16.922,-8.87 0.664,12.28 z m -61.102,-14.9 c -2.355,-3.51 -1.804,-6.42 -0.07,-15.2 l -1.258,-9.34 1.145,-5.87 c 2.84,-14.61 5.793,-14.04 18.07,-14.71 l -5.125,26.33 c -1.695,8.78 0.109,15.21 1.918,21.63 l -15.82,2.99 z m 9.075,47.31 -9.368,1.22 -2.363,-3.51 -5.863,-1.14 c 0.558,-2.91 1.148,-5.83 -0.106,-15.17 l 34.032,-2.51 c 1.808,6.39 3.023,15.76 1.293,24.54 -9.922,4.15 -15.821,3 -17.625,-3.43 z m -11.137,371.34 -11.102,10.01 -7.078,-10.49 z m -14.899,-315.66 -5.089,26.33 -11.727,-2.27 5.094,-26.33 z m 1.442,-148.53 c -2.844,14.64 -26.254,25.28 -33.262,30 L 406.789,1519 c 9.25,-16.41 23.301,-25.83 39.086,-28.85 z m -48.785,-15.52 c 4.754,6.98 2.504,18.69 -0.332,33.33 l -16.524,-9.29 c 1.699,-8.78 9.293,-16.41 16.856,-24.04 z m -2.438,-18.72 -3.98,20.5 -19.324,5.37 4.535,-23.42 c 7.007,-4.72 7.007,-4.72 12.871,-3.59 z m 1848.103,255.52 c -319.19,-34.61 -661.34,-76.75 -978.27,-123.08 -112.14,-18.74 -221.29,-36.9 -329.919,-57.99 l -1.695,8.78 c -1.145,5.84 -2.844,14.62 -6.934,19.91 l -21.089,-1.05 1.144,-5.86 c -6.457,1.78 -20.469,11.24 -29.762,27.65 -4.789,-22.2 -3.8,-43.27 -0.367,-60.82 l -85.105,-16.52 -2.836,14.62 -8.153,10.56 c -0.589,2.93 -4.097,5.29 -4.679,8.23 -2.918,-0.58 -3.508,2.35 -7.008,4.71 l -11.731,-2.26 c -6.414,1.76 -9.324,1.19 -15.226,0.05 -8.817,-1.71 -17.625,-3.41 -28.801,-8.61 l 11.098,-10.01 4.058,-5.29 11.649,-12.92 c 3.508,-2.36 9.371,-1.22 15.269,-0.08 l 3.5,-2.34 0.559,-2.93 c -29.906,-2.77 -71.059,-10.75 -126.777,-21.57 2.363,3.48 1.218,9.34 -2.836,14.62 -8.856,-1.72 -11.762,-2.29 -11.211,-5.22 l -2.36,-3.49 -2.914,-0.57 1.106,-5.86 2.953,0.57 0.551,-2.91 -108.594,-21.07 c 8.812,1.69 14.086,5.75 18.25,15.66 l -4.535,23.44 c -5.86,-1.15 -8.813,-1.72 -8.223,-4.65 l -8.812,-1.69 -2.36,-3.51 -2.914,-0.57 c -1.25,-9.36 3.945,-20.48 8.594,-28.68 l -205.5,-39.9 c -38.168,-7.41 -62.692,9.07 -70.063,47.12 l -90.601,419.68 c -6.821,35.15 14.453,66.6 49.707,73.44 315.238,55.13 633.39,110.83 956.737,155.37 189.57,27.7 382.1,55.94 572.81,77.77 -2.36,-3.46 -1.81,-6.4 -1.22,-9.33 l 15.27,-0.07 c 2.36,3.48 1.77,6.42 1.21,9.34 l 401.42,50.62 c 38.71,4.48 60.29,-12.62 67.66,-50.65 l 90.16,-401.56 c 6.82,-35.13 -18,-64.24 -53.21,-71.08" /><path
         id="path18"
         style="fill:#231f20;fill-opacity:1;fill-rule:nonzero;stroke:none"
         d="m 1042.98,1024.4 c 0,-3.15 -1.58,-3.15 0,-4.73 v -3.14 c 1.59,1.56 4.73,3.14 7.89,3.14 1.59,0 4.73,1.58 4.73,3.16 h -7.89 c -1.59,0 -3.14,0 -4.73,1.57" /><path
         id="path20"
         style="fill:#231f20;fill-opacity:1;fill-rule:nonzero;stroke:none"
         d="m 1054.01,437.992 c 4.72,0 7.89,-1.57 9.48,-4.742 1.58,3.172 1.58,6.309 3.13,6.309 v 1.582 c 1.58,0 1.58,1.589 1.58,1.589 3.14,1.571 3.14,4.719 4.73,6.301 l -1.59,1.571 -6.27,3.16 -11.06,-15.77" /><path
         id="path22"
         style="fill:#231f20;fill-opacity:1;fill-rule:nonzero;stroke:none"
         d="m 1066.62,559.359 -1.55,1.59 c 0,0 -1.58,0 -3.17,1.59 -1.59,1.563 -3.17,1.563 -3.17,1.563 0,1.558 -1.55,1.558 -4.72,3.148 l -9.44,-3.148 -1.59,-1.563 c -3.13,-1.59 -3.13,-4.75 0,-6.309 3.14,-9.468 26.81,-7.89 23.64,3.129" /><path
         id="path24"
         style="fill:#231f20;fill-opacity:1;fill-rule:nonzero;stroke:none"
         d="m 1074.51,1118.98 c 0,-1.56 0,-3.15 1.59,-3.15 1.58,-3.16 1.58,-3.16 1.58,-1.58 4.72,1.58 0,3.17 -3.17,4.73" /><path
         id="path26"
         style="fill:#231f20;fill-opacity:1;fill-rule:nonzero;stroke:none"
         d="m 995.676,732.781 c 6.344,1.559 9.474,4.719 9.474,11.028 h -15.744 l 6.27,-11.028" /><path
         id="path28"
         style="fill:#231f20;fill-opacity:1;fill-rule:nonzero;stroke:none"
         d="m 1018.3,36.4805 -14.97,-0.8086 c -5.963,-0.3008 -9.107,2.5078 -9.252,5.4883 L 991.113,41 c -2.855,-3.1406 -2.855,-3.1406 -2.672,-6.1289 0.149,-2.9609 -2.816,-3.1211 -5.671,-6.2695 l 35.86,1.9375 -0.33,5.9414" /><path
         id="path30"
         style="fill:#231f20;fill-opacity:1;fill-rule:nonzero;stroke:none"
         d="m 1101.32,478.969 c -6.3,0 -9.48,-3.149 -9.48,-11.02 h 4.72 c 6.35,0 11.06,4.723 4.76,11.02" /><path
         id="path32"
         style="fill:#231f20;fill-opacity:1;fill-rule:nonzero;stroke:none"
         d="m 1147.01,1095.33 c -6.27,0 -17.34,-1.57 -17.34,-7.87 l 1.59,-6.31 c 3.14,-1.56 4.72,-3.15 9.48,-3.15 4.72,0 17.33,3.15 17.33,9.46 0,1.56 -4.72,7.87 -11.06,7.87" /><path
         id="path34"
         style="fill:#231f20;fill-opacity:1;fill-rule:nonzero;stroke:none"
         d="m 1147.01,1117.42 -7.86,1.56 h -1.58 l 7.89,-3.15 1.55,1.59" /><path
         id="path36"
         style="fill:#231f20;fill-opacity:1;fill-rule:nonzero;stroke:none"
         d="m 1140.74,1054.36 c -1.59,-1.59 -3.17,-1.59 -3.17,-4.73 h 9.44 l 4.75,3.14 c -1.58,0 -1.58,0 -3.17,1.59 h -7.85" /><path
         id="path38"
         style="fill:#231f20;fill-opacity:1;fill-rule:nonzero;stroke:none"
         d="m 1101.32,1118.98 h 6.3 c 0,0 0,1.58 1.56,3.16 0,0 1.58,0 3.16,1.58 -3.16,0 -6.3,0 -6.3,-1.58 0,1.58 0,0 -4.72,-3.16" /><path
         id="path40"
         style="fill:#231f20;fill-opacity:1;fill-rule:nonzero;stroke:none"
         d="m 938.961,472.672 1.551,-4.723 h 3.172 l -1.59,4.723 h -3.133" /><path
         id="path42"
         style="fill:#231f20;fill-opacity:1;fill-rule:nonzero;stroke:none"
         d="m 689.879,658.68 c -7.891,0 -18.922,-12.61 -18.922,-17.34 l 3.176,-6.309 c 1.547,-3.14 6.269,-4.722 12.605,-4.722 7.856,0 22.059,9.453 22.059,18.921 0,4.711 -15.789,9.45 -18.918,9.45" /><path
         id="path44"
         style="fill:#231f20;fill-opacity:1;fill-rule:nonzero;stroke:none"
         d="m 904.262,1014.94 c -1.586,4.73 -3.133,4.73 -6.301,3.15 h -3.176 c 1.586,-6.29 4.758,-9.45 7.891,-9.45 l 4.722,3.16 c -1.546,0 -1.546,1.56 -3.136,3.14" /><path
         id="path46"
         style="fill:#231f20;fill-opacity:1;fill-rule:nonzero;stroke:none"
         d="m 894.785,932.969 -4.715,-3.149 c 1.582,-3.148 3.168,-4.738 4.715,-6.308 h 3.176 c 1.582,0 3.168,1.57 3.168,1.57 v 6.309 h -4.758 c -1.586,0 -1.586,1.578 -1.586,1.578" /><path
         id="path48"
         style="fill:#231f20;fill-opacity:1;fill-rule:nonzero;stroke:none"
         d="m 670.957,499.48 h 6.309 c 1.582,-1.589 3.136,-1.589 6.304,-1.589 v 9.461 h -9.437 l -3.176,-7.872" /><path
         id="path50"
         style="fill:#231f20;fill-opacity:1;fill-rule:nonzero;stroke:none"
         d="m 962.598,806.859 v -7.89 h 9.437 c 0,4.742 -3.133,7.89 -9.437,7.89" /><path
         id="path52"
         style="fill:#231f20;fill-opacity:1;fill-rule:nonzero;stroke:none"
         d="m 1172.23,1029.14 c -4.72,0 -14.16,-4.74 -15.74,-6.31 v -4.74 l 7.89,-1.56 c 1.58,1.56 4.71,1.56 7.85,1.56 3.17,0 6.34,0 9.47,1.58 v 4.73 c 0,0 -1.58,0 -4.71,3.16 -1.59,1.58 -3.18,1.58 -4.76,1.58" /><path
         id="path54"
         style="fill:#231f20;fill-opacity:1;fill-rule:nonzero;stroke:none"
         d="m 563.766,387.551 c 0,3.148 1.586,4.73 1.586,4.73 0,1.578 -1.586,1.578 -1.586,1.578 -1.582,0 -3.133,-1.578 -3.133,-3.16 0,-3.148 1.551,-3.148 3.133,-3.148" /><path
         id="path56"
         style="fill:#231f20;fill-opacity:1;fill-rule:nonzero;stroke:none"
         d="m 576.379,1084.31 c -4.723,0 -6.305,-1.6 -6.305,-6.31 0,-1.59 0,-3.16 1.582,-3.16 l 4.723,-3.14 c 0,1.58 3.133,3.14 7.891,4.71 v 4.74 c -1.59,0 -4.758,1.56 -4.758,1.56 -1.547,1.6 -3.133,1.6 -3.133,1.6" /><path
         id="path58"
         style="fill:#231f20;fill-opacity:1;fill-rule:nonzero;stroke:none"
         d="m 953.121,646.07 4.723,-9.461 c 6.34,1.59 9.476,4.731 9.476,11.039 h -6.308 c -3.168,0 -6.305,-1.578 -7.891,-1.578" /><path
         id="path60"
         style="fill:#231f20;fill-opacity:1;fill-rule:nonzero;stroke:none"
         d="m 1057.18,508.91 -6.31,7.899 -6.3,-3.149 6.3,-6.308 6.31,1.558" /><path
         id="path62"
         style="fill:#231f20;fill-opacity:1;fill-rule:nonzero;stroke:none"
         d="m 920.012,977.109 c 0,-1.578 -1.547,-1.578 -1.547,-3.148 -1.59,0 -1.59,-1.57 -1.59,-3.152 0,-3.161 1.59,-4.727 4.719,-6.309 4.758,1.582 6.308,3.148 7.89,3.148 v 7.883 c -3.132,0 -3.132,0 -4.718,1.578 h -4.754" /><path
         id="path64"
         style="fill:#231f20;fill-opacity:1;fill-rule:nonzero;stroke:none"
         d="m 1050.87,378.082 3.14,-4.711 3.17,1.57 -4.72,3.141 h -1.59" /><path
         id="path66"
         style="fill:#231f20;fill-opacity:1;fill-rule:nonzero;stroke:none"
         d="m 1205.34,378.082 c 1.59,1.598 1.59,1.598 1.59,3.16 0,3.149 -1.59,3.149 -3.14,3.149 -4.75,0 -3.17,-9.45 1.55,-6.309" /><path
         id="path68"
         style="fill:#231f20;fill-opacity:1;fill-rule:nonzero;stroke:none"
         d="m 986.234,598.781 6.305,-4.722 6.305,1.562 -6.305,6.309 -6.305,-3.149" /><path
         id="path70"
         style="fill:#231f20;fill-opacity:1;fill-rule:nonzero;stroke:none"
         d="m 973.625,598.781 c -3.172,-3.16 -3.172,-6.301 0,-9.461 l 12.609,6.301 -3.171,6.309 -9.438,-3.149" /><path
         id="path72"
         style="fill:#231f20;fill-opacity:1;fill-rule:nonzero;stroke:none"
         d="m 959.43,1005.49 c 1.582,1.56 1.582,3.15 0,3.15 h -14.2 v -7.89 h 11.067 c 0,1.58 1.547,3.16 3.133,4.74" /><path
         id="path74"
         style="fill:#231f20;fill-opacity:1;fill-rule:nonzero;stroke:none"
         d="m 1124.96,464.781 c 0,4.739 -1.59,6.301 -6.31,7.891 -1.58,-1.59 -3.13,-3.152 -6.31,-4.723 -1.58,-3.168 0,-4.738 1.59,-7.89 l 11.03,4.722" /><path
         id="path76"
         style="fill:#231f20;fill-opacity:1;fill-rule:nonzero;stroke:none"
         d="m 2026.61,497.891 c 4.71,0 7.89,3.148 7.89,4.73 -3.18,0 -6.31,-1.582 -7.89,-4.73" /><path
         id="path78"
         style="fill:#231f20;fill-opacity:1;fill-rule:nonzero;stroke:none"
         d="m 1906.8,444.301 h 6.31 v 6.301 h -7.89 c -3.14,-1.571 -4.72,-4.731 -4.72,-6.301 3.17,-1.571 4.72,-1.571 6.3,0" /><path
         id="path80"
         style="fill:#231f20;fill-opacity:1;fill-rule:nonzero;stroke:none"
         d="m 1898.95,338.672 c 1.55,0 4.72,0 6.27,1.578 0,3.16 -1.55,3.16 -4.72,3.16 h -3.14 v -3.16 c 1.59,0 1.59,-1.578 1.59,-1.578" /><path
         id="path82"
         style="fill:#231f20;fill-opacity:1;fill-rule:nonzero;stroke:none"
         d="m 1939.91,294.531 3.14,3.168 -7.85,1.571 c -3.18,-4.739 3.13,-4.739 4.71,-4.739" /><path
         id="path84"
         style="fill:#231f20;fill-opacity:1;fill-rule:nonzero;stroke:none"
         d="m 1897.36,269.309 c -1.58,0 -3.17,1.593 -7.89,1.593 -4.72,-3.16 -1.58,-7.89 0,-7.89 11.03,1.578 15.75,3.168 15.75,3.168 -1.55,1.562 -4.72,3.129 -7.86,3.129" /><path
         id="path86"
         style="fill:#231f20;fill-opacity:1;fill-rule:nonzero;stroke:none"
         d="m 1927.31,226.762 c 0,-3.16 7.89,-9.473 14.19,-9.473 h 4.72 c 1.58,0 4.72,3.16 7.89,7.883 -9.48,0 -15.78,3.168 -22.09,9.48 -3.13,-3.183 -4.71,-6.312 -4.71,-7.89" /><path
         id="path88"
         style="fill:#231f20;fill-opacity:1;fill-rule:nonzero;stroke:none"
         d="m 1952.53,393.859 3.13,-3.16 3.17,1.582 -3.17,1.578 h -3.13" /><path
         id="path90"
         style="fill:#231f20;fill-opacity:1;fill-rule:nonzero;stroke:none"
         d="m 1933.61,258.281 v 1.59 c -1.59,0 -4.72,0 -6.3,-1.59 -1.59,0 -3.14,-1.582 -4.73,-1.582 -3.17,0 -6.3,1.582 -9.47,3.172 -6.31,-3.172 -11.03,-15.781 -7.89,-18.91 6.34,3.129 11.06,6.289 14.19,6.289 4.76,1.582 9.48,4.73 15.79,9.449 l -1.59,1.582" /><path
         id="path92"
         style="fill:#231f20;fill-opacity:1;fill-rule:nonzero;stroke:none"
         d="m 1965.14,1063.81 h 11.02 v 3.16 h -11.02 v -3.16" /><path
         id="path94"
         style="fill:#231f20;fill-opacity:1;fill-rule:nonzero;stroke:none"
         d="m 2029.78,702.82 c -1.59,0 -3.17,3.16 -4.73,6.309 h -14.19 c 0,-1.57 -1.59,-1.57 -1.59,-1.57 l -1.58,-1.579 v -4.718 l 17.36,-1.59 4.73,3.148" /><path
         id="path96"
         style="fill:#231f20;fill-opacity:1;fill-rule:nonzero;stroke:none"
         d="m 2025.05,1130.03 h -4.75 v -4.74 h 4.75 v 4.74" /><path
         id="path98"
         style="fill:#231f20;fill-opacity:1;fill-rule:nonzero;stroke:none"
         d="m 2045.52,437.992 6.31,3.149 h -1.55 v 1.589 l -1.59,1.571 h -1.58 c 0,-1.571 -1.59,-1.571 -1.59,-1.571 -3.13,-1.589 -4.72,0 -1.58,-3.171 l 1.58,-1.567" /><path
         id="path100"
         style="fill:#231f20;fill-opacity:1;fill-rule:nonzero;stroke:none"
         d="m 2015.58,1101.64 h -3.13 v -6.31 h 3.13 v 6.31" /><path
         id="path102"
         style="fill:#231f20;fill-opacity:1;fill-rule:nonzero;stroke:none"
         d="m 2013.99,628.719 1.59,6.312 h -3.13 l -1.59,-4.722 3.13,-1.59" /><path
         id="path104"
         style="fill:#231f20;fill-opacity:1;fill-rule:nonzero;stroke:none"
         d="m 1973.03,1156.82 c -3.18,1.57 -3.18,1.57 -3.18,3.15 h -11.02 c 0,-3.15 4.72,-7.89 6.31,-7.89 l 7.89,4.74" /><path
         id="path106"
         style="fill:#231f20;fill-opacity:1;fill-rule:nonzero;stroke:none"
         d="m 1167.51,1145.77 c -4.72,-3.12 -3.13,-6.3 1.58,-7.87 h 6.31 c 3.17,0 6.3,1.57 6.3,4.75 l -3.13,3.12 h -11.06" /><path
         id="path108"
         style="fill:#231f20;fill-opacity:1;fill-rule:nonzero;stroke:none"
         d="m 1973.03,1043.32 h 12.61 v 3.15 h -12.61 v -3.15" /><path
         id="path110"
         style="fill:#231f20;fill-opacity:1;fill-rule:nonzero;stroke:none"
         d="m 2062.89,236.219 c -3.17,0 -3.17,0 -3.17,-1.567 0,0 -1.58,0 -1.58,-1.582 v -4.73 c 0,0 1.58,-1.578 1.58,-3.168 l 1.58,-1.57 c 7.86,1.57 12.62,3.16 15.75,4.738 v 3.129 c -3.13,0 -4.72,1.601 -7.89,3.183 -3.13,1.567 -4.72,1.567 -6.27,1.567" /><path
         id="path112"
         style="fill:#231f20;fill-opacity:1;fill-rule:nonzero;stroke:none"
         d="m 2069.16,319.75 c -3.13,-1.57 -4.72,-1.57 -6.27,-3.129 -4.75,-3.172 -7.89,-6.312 -7.89,-7.891 h 6.3 v -1.589 c -1.58,-1.571 -1.58,-3.129 1.59,-6.301 1.55,0 1.55,0 3.14,1.582 h 3.13 c -1.55,3.148 0,6.308 3.17,7.887 3.17,1.57 4.72,3.14 4.72,6.312 l -3.13,6.309 -4.76,-3.18" /><path
         id="path114"
         style="fill:#231f20;fill-opacity:1;fill-rule:nonzero;stroke:none"
         d="m 2047.11,1130.03 h -3.17 v -4.74 h 3.17 v 4.74" /><path
         id="path116"
         style="fill:#231f20;fill-opacity:1;fill-rule:nonzero;stroke:none"
         d="m 2056.55,283.5 h -7.86 c -1.58,-1.578 -3.17,-3.148 -3.17,-4.711 1.59,-1.59 3.17,-3.18 4.76,-3.18 0,0 1.55,0 4.72,-1.558 l 4.72,4.738 c -3.17,1.563 -3.17,1.563 -3.17,4.711" /><path
         id="path118"
         style="fill:#231f20;fill-opacity:1;fill-rule:nonzero;stroke:none"
         d="m 2040.8,239.359 h -4.72 v -4.707 c 1.59,0 4.72,0 9.44,1.567 -3.13,1.562 -4.72,1.562 -4.72,3.14" /><path
         id="path120"
         style="fill:#231f20;fill-opacity:1;fill-rule:nonzero;stroke:none"
         d="m 2097.55,412.77 c 0,1.562 -1.58,3.152 -3.17,3.152 -1.55,0 -3.13,0 -6.27,-3.152 h -1.59 l -1.58,-1.571 -4.72,1.571 c 0,3.152 0,3.152 1.55,4.742 v 1.558 c 1.59,0 1.59,1.571 3.17,1.571 -1.58,0 -1.58,0 -3.17,1.589 h -1.55 c -3.17,0 -7.89,0 -11.06,-1.589 1.58,-4.719 3.17,-7.871 3.17,-9.442 0,-3.168 1.59,-6.297 4.72,-7.89 h 11.06 c 4.72,0 7.86,0 9.44,-1.579 l 3.17,7.891 c 0,1.578 -1.58,3.149 -3.17,3.149" /><path
         id="path122"
         style="fill:#231f20;fill-opacity:1;fill-rule:nonzero;stroke:none"
         d="m 2288.19,1285.38 c -2.49,-9.09 -8.3,-12.39 -14.27,-12.73 l -1.93,35.75 c -3.47,8.77 -9.76,14.41 -15.58,11.1 -8.97,-0.49 -18.07,2.02 -21.22,4.82 2.67,6.13 11.3,12.54 22.94,19.14 11.6,6.62 19.9,18.99 19.1,33.87 -0.29,5.96 -3.62,11.76 -9.72,14.42 -3.15,2.81 -6.15,2.65 -9.15,2.49 -2.82,-3.14 -5.83,-3.3 -8.97,-0.49 -3.29,5.78 -13.06,20.19 -19.02,19.88 -8.93,-0.5 -14.31,-12.72 -14.12,-15.71 -6.15,2.66 -15.08,2.19 -20.57,-7.07 -1.27,23.82 -17.05,37.88 -23.01,37.57 -8.92,-0.49 -11.45,-9.58 -10.32,-30.41 -3.77,14.72 -7.28,23.49 -7.61,29.43 -0.47,8.94 -6.95,17.54 -13.24,23.17 -2.96,-0.14 -5.78,-3.29 -11.6,-6.6 -2.82,-3.14 -5.67,-6.26 -11.63,-6.59 -3.01,-0.16 -9.45,8.44 -18.88,16.91 0,0 -2.96,-0.17 -5.78,-3.31 -3.04,-0.16 -5.86,-3.3 -8.68,-6.45 -1.13,20.86 -16.82,34.91 -24.65,13.6 -6.63,11.59 -9.95,17.37 -10.1,20.35 l -10.42,26.3 c -9.26,5.49 -26.57,-7.39 -28.88,-19.47 l -26.89,-1.45 c -0.65,11.91 -0.8,14.89 -10.71,32.26 l 2.81,3.13 -0.32,5.98 c 3.32,-5.82 6.47,-8.62 12.43,-8.3 l 32.5,7.73 c 14.78,3.79 32.71,4.77 44.68,5.42 8.92,0.47 15.21,-5.18 18.36,-7.99 9.15,-2.49 18.11,-2.02 20.6,7.07 5.96,0.33 9.25,-5.46 12.4,-8.27 3,0.16 3.15,-2.82 3.29,-5.78 6.01,0.32 8.82,3.44 11.67,6.59 5.64,6.25 8.6,6.42 11.6,6.58 15.12,-2.15 24.23,-4.66 30.33,-7.32 24.41,-7.64 33.52,-10.12 27.37,-7.46 21.08,-1.84 32.86,1.76 38.5,8.05 5.63,6.27 14.63,6.75 23.6,7.24 2.96,0.15 5.96,0.31 9.25,-5.47 3.15,-2.82 6.29,-5.64 9.3,-5.48 0.32,-5.94 -2.39,-12.07 -1.58,-26.93 -5.78,-3.32 -8.79,-3.48 -11.42,-9.59 -2.81,-3.13 -2.67,-6.09 -8.49,-9.39 l 0.66,-11.92 c 6.1,-2.67 9.25,-5.49 12.25,-5.32 3.15,-2.83 6.11,-2.66 3.29,-5.81 3.01,0.17 0.15,-2.95 -8.45,-9.39 l 0.95,-17.86 c 6.29,-5.64 15.08,-2.16 15.08,-2.16 l 2.26,-41.69 c 0.14,-2.98 -2.49,-9.1 -5.16,-15.2 -5.64,-6.29 -8.31,-12.4 -7.99,-18.36 0.15,-2.97 3.3,-5.78 9.59,-11.4 3.29,-5.8 6.62,-11.59 6.77,-14.57 0.14,-2.98 0.47,-8.92 -2.34,-12.07 -2.82,-3.13 -2.49,-9.09 1.12,-20.84 z m -80.99,58.33 -8.97,-0.49 c -3.14,2.82 -3.14,2.82 -6.14,2.66 -3.15,2.8 -7.25,23.47 -7.57,29.45 -0.33,5.95 -0.33,5.95 2.67,6.11 -2.35,-12.09 0.95,-17.87 10.24,-23.33 5.96,0.33 9.11,-2.51 15.26,-5.17 2.96,0.17 6.25,-5.61 6.58,-11.57 -3.15,2.81 -6.11,2.65 -12.07,2.34 z m -29.26,-634.581 c -7.9,-160.789 -9.44,-327.887 -9.44,-487.09 0,-22.09 -9.48,-31.527 -31.53,-31.527 h -214.04 c 4.33,-3.301 6.58,-3.793 6.7,-6.282 l -8.45,-9.421 -0.84,15.703 h -16.67 c -18.92,0 -31.53,12.609 -31.53,31.527 v 25.211 c 3.13,1.582 4.72,3.141 4.72,4.73 v 4.719 h -4.72 l 3.13,44.141 33.12,430.359 c -88.28,-193.89 -143.44,-301.078 -236.44,-520.211 -7.89,-20.476 -9.48,-25.218 -29.98,-25.218 l -225.11,-4.571 c 0.34,-0.289 0.45,-0.297 0.9,-0.699 0.47,-8.969 0.98,-17.891 -8.13,-15.398 -5.96,-0.332 -9.11,2.507 -15.58,11.128 l -3.15,2.801 c 0,0 -3.15,2.789 -3.33,5.778 l 6.91,-0.977 c -11.94,5.047 -18.93,16.707 -18.93,31.898 l 69.4,1030.93 c 1.55,18.91 11.03,29.96 31.49,29.96 l 189.17,4.74 c 18.95,0 33.11,-15.79 33.11,-33.11 l -29.94,-509.16 c 77.25,171.82 157.64,335.75 250.63,507.57 12.61,25.22 37.84,41 63.06,41 h 61.47 c 37.83,0 75.67,-9.47 102.47,-36.26 31.53,-31.53 50.45,-70.92 48.86,-119.8 -4.72,-181.299 -7.86,-241.178 -17.33,-422.471 z M 1918.75,108.992 c -6.43,8.629 -12.88,17.238 -13.06,20.227 l 5.5,9.25 c 2.99,0.14 6.29,-5.66 12.58,-11.27 z m -273.76,-32.6717 -5.96,-0.332 c -5.97,-0.3281 -6.44,8.6015 -3.62,11.7305 -0.15,2.9804 -0.33,5.9609 2.34,12.0898 0.33,-5.957 3.29,-5.7969 3.29,-5.7969 2.96,0.168 3.15,-2.8203 3.15,-2.8203 0.15,-2.9805 0.15,-2.9805 3.29,-5.8008 l 0.32,-5.9609 c -2.96,-0.1484 -2.96,-0.1484 -2.81,-3.1094 z m -101.27,45.2817 c -6.58,11.57 -9.91,17.378 -10.06,20.339 5.64,6.289 17.38,9.891 20.42,10.051 0.66,-11.89 -1.91,-20.98 -10.36,-30.39 z m -88.06,22.109 -0.63,11.879 9,0.492 0.63,-11.883 z m -37.98,-16.992 c -3.15,2.832 -3.15,2.832 -6.15,2.672 -2.96,-0.161 -3.11,2.82 -9.26,5.449 l -3.14,2.82 c -0.62,11.91 4.86,21.172 13.8,21.66 l 12.07,-2.351 1.13,-20.828 z m -74.1,1349.461 c -3,-0.16 -9.11,2.5 -18.55,10.93 l -25.2,22.56 c 0.18,-2.99 0.33,-5.97 -2.64,-6.14 l 0.81,-14.86 2.96,0.16 0.84,-14.92 c -6.29,5.64 -42.77,15.62 -51.77,15.15 -5.96,-0.33 -8.93,-0.49 -47.28,-11.54 l -0.62,11.93 c -12.29,5.31 -15.28,5.17 -18.11,2.02 -2.48,-9.09 -8.78,-3.47 -11.92,-0.65 -6.15,2.66 -12.15,2.34 -24.22,4.66 -26.9,-1.44 -38.97,0.88 -42.11,3.7 -3.15,2.81 -6.3,5.62 -12.3,5.3 -14.89,-0.8 -67.87,-18.58 -70.69,-21.73 -0.48,8.93 -3.77,14.71 -10.25,23.33 -2.96,-0.16 -5.92,-0.33 -8.77,-3.45 -3,-0.17 -8.822,-3.47 -8.643,-6.45 l -0.984,17.85 5.967,0.33 c -0.147,2.98 2.85,3.14 5.85,3.3 5.97,0.33 9.11,-2.49 18.37,-7.96 6.29,-5.62 12.29,-5.3 15.26,-5.14 3,0.17 8.96,0.49 14.6,6.75 l 17.45,9.9 c 0,0 3.15,-2.82 12.11,-2.35 18.07,-1.99 24.22,-4.64 21.22,-4.8 l 23.85,1.29 c 9.01,0.48 14.79,3.79 17.46,9.89 l 6.44,-8.61 c 3,0.16 3,0.16 5.64,6.27 2.81,3.15 2.81,3.15 8.81,3.47 3,0.16 24.22,-4.66 36.99,-18.91 l -3,-0.16 c 0,0 3,0.16 3.15,-2.79 5.96,0.32 8.63,6.41 16.76,21.77 0.32,-5.94 9.62,-11.4 24.87,-16.55 24.37,-7.64 39.63,-12.79 53.28,11.82 6.77,-14.54 15.55,-11.09 27.37,-7.48 3.44,-8.75 12.87,-17.2 18.84,-16.87 0,0 3,0.14 2.82,3.15 2.82,3.13 8.34,12.39 17.3,12.86 5.93,0.33 12.08,-2.34 18.51,-10.94 l 128.9,-2 11.17,15.52 9.44,-8.44 c 3.29,-5.78 5.96,0.31 11.27,12.55 l 27.04,-1.54 c 3.47,-8.74 6.66,-11.56 12.76,-14.2 5.64,6.25 8.32,12.38 8.13,15.35 -0.15,2.97 3,0.16 12.77,-14.23 l 203.83,-3.95 c 2.85,3.14 5.67,6.29 5.48,9.25 5.82,3.31 5.64,6.31 8.65,6.47 2.67,6.11 8.67,6.43 14.96,0.79 5.96,0.33 12.07,-2.34 18.22,-5 11.78,3.63 17.74,3.96 23.71,4.27 8.96,0.49 15.07,-2.18 18.11,-2.01 12.26,-5.31 15.22,-5.15 26.34,10.4 0.16,-2.96 18.77,-13.94 27.7,-13.45 -2.34,-12.07 -1.68,-23.98 1.94,-35.7 0.65,-11.91 -4.84,-21.17 -16.62,-24.78 -6.33,5.64 -12.62,11.26 -13.09,20.19 -6.62,11.58 -12.74,14.22 -21.7,13.75 -9.15,2.49 -17.93,-0.98 -26.38,-10.38 -11.64,-6.62 -20.42,-10.07 -29.71,-4.59 -2.82,-3.15 -8.6,-6.44 -14.45,-9.73 -9.59,11.4 -18.41,7.95 -26.53,-7.41 -6.66,11.59 -18.73,13.91 -36.66,12.94 -14.93,-0.8 -29.86,-1.6 -41.94,0.71 -6.47,8.61 -12.61,11.28 -12.61,11.28 -3.3,5.78 -9.45,8.42 -32.83,-1.77 -8.81,-3.47 -14.63,-6.76 -20.6,-7.09 0,0 -5.96,-0.33 -12.07,2.31 -12.15,2.35 -21.22,4.84 -30.18,4.35 -6.15,2.66 -15.15,2.19 -27.23,4.5 -9.25,5.5 -15.25,5.17 -15.25,5.17 l -14.75,-3.8 c -11.93,-0.65 -20.75,-4.12 -26.56,-7.39 -5.96,-0.32 -8.93,-0.5 -11.75,-3.64 -12,-0.64 -20.78,-4.1 -29.75,-4.58 -8.92,-0.48 -21.03,1.85 -36.44,9.97 -18.4,7.96 -27.51,10.46 -33.47,10.13 -9.01,-0.49 -14.49,-9.74 -13.69,-24.63 l -1.28,23.82 c -12.25,5.31 -24.22,4.66 -38.82,-2.08 -14.78,-3.8 -20.6,-7.11 -26.53,-7.42 z m -5.21,-1267.16 c 0.18,-2.989 0.32,-5.95 -2.35,-12.071 -2.64,-6.109 -2.34,-12.047 -8.3,-12.379 -3.01,-0.16 -6.3,5.621 -9.62,11.418 -12.88,17.223 -16.18,23.004 -9.74,14.403 l 11.12,15.511 24.23,-4.64 c -2.67,-6.114 -2.53,-9.09 -5.34,-12.242 z m -46.3,897.36 L 995.676,764.309 1263.68,387.551 c 11.02,-15.762 9.44,-29.961 -4.72,-42.571 L 1095.02,201.531 c -1.77,-1.402 -3.63,-2.601 -5.52,-3.652 -0.78,-5.699 -2.54,-9.367 -4.44,-11.481 l -3.15,2.813 c 0.48,-8.93 0.66,-11.91 3.62,-11.742 0.81,-14.867 -1.87,-21.008 -13.8,-21.649 l -4.13,20.672 c -0.14,2.977 2.67,6.11 5.68,6.27 l 2.67,6.129 -9.29,5.449 c 0.37,0.41 0.65,0.82 1.02,1.23 -8.5,0.879 -15.59,6.582 -19.97,13.852 l -83.526,127.68 C 937.375,379.68 908.984,422.23 879.043,464.781 844.348,512.09 806.512,559.359 768.68,605.09 V 273.48 c 0.086,0.102 0.105,0.211 0.191,0.309 l 9.586,-11.418 -7.32,-30.25 c -1.371,2.391 -1.957,3.988 -2.457,5.418 v -10.777 c 0,-11.731 -2.883,-19.692 -8.453,-25.012 0.851,-0.008 1.976,0.039 3.546,0.121 l -4.644,-24.129 -11.965,-0.652 0.68,18.43 c -2.867,-0.758 -5.606,-1.61 -9.11,-1.879 l -208.078,-4.719 c -18.922,0 -33.078,14.199 -33.078,33.117 3.137,185.992 9.438,373.582 18.879,559.602 3.172,66.211 6.344,134 11.063,200.191 0,6.297 1.546,17.348 1.546,29.968 h 1.59 l 6.305,6.29 c 0,0 -1.551,0 -7.895,3.16 l 9.481,115.09 c 3.133,39.39 4.715,77.22 7.891,116.63 1.585,20.5 12.613,29.96 33.074,29.96 h 197.054 c 20.504,0 33.114,-15.76 33.114,-34.68 L 786.047,956.609 1106.04,1287.66 c 11.03,12.62 33.11,14.18 45.72,1.58 l 138.72,-138.72 c 12.62,-15.78 14.2,-29.96 1.59,-44.14 z m -2.97,-983.61 -0.95,17.851 8.97,0.481 0.95,-17.84 z m -25.46,28.472 -8.96,-0.472 -1.28,23.82 14.93,0.789 1.13,-20.848 c -6,-0.32 -6,-0.32 -5.82,-3.289 z m -69.92,-36.613 -9.59,11.43 c -0.29,5.941 -0.47,8.933 2.35,12.07 l -0.62,11.891 c 8.92,0.48 15.07,-2.161 18.55,-10.93 0.47,-8.93 -5.02,-18.168 -10.69,-24.461 z m -29.76,-58.3399 -7.42,26.4922 8.92,0.4687 c -0.14,2.9805 2.86,3.1484 9.15,-2.4687 3.62,-11.7696 -1.87,-21.0313 -10.65,-24.4922 z m -18.94,73.6209 -15.11,2.172 -3,-0.152 c 0,0 -2.97,-0.18 -5.79,-3.309 -2.85,-3.121 -5.81,-3.289 -8.81,-3.449 -3.3,5.777 -3.62,11.726 -4.24,23.637 l -14.97,-0.789 -1.46,26.769 2.86,3.152 -0.33,5.95 c 0,0 -0.18,2.968 2.82,3.14 l 11.96,0.641 c 6.77,-14.543 10.87,-35.211 14.34,-43.992 l -1.13,20.851 c 2.81,3.117 11.78,3.59 23.74,4.25 z m -103.47,30.25 -1.31,23.809 2.85,3.14 3,0.161 -0.14,2.96 c 3.14,-2.8 2.96,0.168 5.78,3.309 0.8,-14.867 -1.54,-26.937 -10.18,-33.379 z m -31.61,31.121 8.93,0.5 9.77,-14.39 -11.78,-3.629 z m 27.54,-67.179 0.33,-5.954 c -5.78,-3.289 -5.63,-6.25 -5.63,-6.25 -2.85,-3.136 -5.82,-3.308 -8.78,-3.468 l -6.29,5.609 c -3.01,-0.148 -3.01,-0.148 -3.15,2.82 -0.18,2.993 -0.18,2.993 2.81,3.153 0,0 -0.14,2.957 2.68,6.109 2.96,0.168 2.82,3.149 5.78,3.309 l 2.81,3.109 -0.32,5.961 -3.11,2.82 -0.33,5.981 8.31,12.379 9.58,-11.418 1.13,-20.852 c -2.96,-0.172 -2.96,-0.172 -5.82,-3.308 z m -58.46,29.699 c -6.329,5.621 -9.801,14.39 -10.094,20.347 l 8.492,9.411 c 9.437,-8.43 12.73,-14.239 12.875,-17.188 0.512,-8.941 -2.16,-15.062 -11.273,-12.57 z m -18.321,61.679 c -2.812,-3.121 -2.676,-6.121 -2.488,-9.082 l -5.492,-9.246 -18.074,1.996 -3.332,5.793 -0.325,5.969 c -2.965,-0.168 -3.109,2.789 -3.293,5.789 -0.328,5.961 2.352,12.071 11.125,15.531 l 8.489,9.411 c -0.286,5.961 2.531,9.101 8.164,15.359 l 3.144,-2.82 3.293,-5.778 2.965,0.157 c 0,0 3.184,-2.817 3.328,-5.797 l 0.949,-17.852 c -5.964,-0.32 -8.785,-3.48 -8.453,-9.43 z m -4.297,-86.8 -11.808,53.109 14.894,0.801 z m -74.437,103.472 c -0.477,8.918 2.015,18.008 7.648,24.297 l 12.258,-5.328 1.422,-26.781 z M 899.98,119.66 c -5.96,-0.308 -12.07,2.34 -18.542,10.942 l -0.985,17.878 c 0,0 -0.476,8.93 8.488,9.418 3.004,0.161 9.297,-5.457 15.727,-14.089 l 0.152,-2.969 c 0.469,-8.949 0.797,-14.899 -4.84,-21.18 z m -6.222,-51.0702 -14.93,-0.8203 c -6.289,5.6602 -9.769,14.4102 -7.426,26.4805 5.821,3.2891 14.969,0.8086 24.403,-7.6484 0.476,-8.9297 0.808,-14.8711 -2.047,-18.0118 z m -78.453,177.8592 7.031,36.211 7.894,-35.398 z m 17.004,-37.89 -6.293,5.64 -3.289,5.801 c -3.145,2.809 -3.293,5.781 -3.477,8.762 -0.328,5.949 2.676,6.109 8.637,6.429 2.965,0.149 5.82,3.289 8.785,3.461 z m -17.864,-57.68 -0.8,14.891 12.148,-2.329 0.805,-14.882 z M 791.719,128.73 c -3,-0.16 -3.145,2.821 -6.18,2.668 l -2.965,-0.168 -3.144,2.84 -1.282,23.801 c -3.14,2.809 -9.289,5.469 -12.761,14.258 -0.774,14.84 1.539,26.922 7.359,30.23 2.965,0.172 3.145,-2.82 3.145,-2.82 l 0.14,-2.98 c 0,0 3.004,0.16 6.293,-5.618 6.149,-2.66 6.481,-8.609 6.805,-14.562 l 0.656,-11.899 -2.816,-3.14 0.144,-2.981 c 2.965,0.161 5.965,0.321 9.114,-2.48 z m -14.492,-9.73 8.964,0.492 0.954,-17.863 -8.93,-0.488 z m 14.257,-97.7187 c -11.929,-0.6602 -18.367,7.9375 -19.168,22.8281 -0.148,2.9609 -0.148,2.9609 2.668,6.1015 l -0.324,5.9688 2.961,0.1719 c -0.144,2.9687 -0.144,2.9687 2.672,6.0976 l 13.098,-20.2109 z m -23.773,52.4492 -2.816,-3.1485 -8.965,-0.4804 -4.278,23.6484 17.93,0.9609 1.133,-20.8203 z m -41.52,48.4995 -1.132,20.84 c -0.473,8.93 -0.805,14.879 2.015,18.02 6.289,-5.629 12.731,-14.25 19.676,-31.789 z m -26.894,-1.449 -0.945,17.871 8.925,0.469 0.981,-17.871 z m -15.195,-51.5701 5.64,6.2696 c -0.148,2.9804 2.672,6.1211 8.672,6.4414 L 698.887,73 l 3.144,-2.8203 c -5.34,-12.2305 -11.343,-12.5508 -17.929,-0.9688 z m -8.153,-15.3398 -23.898,-1.3125 -0.145,2.9609 c -3.144,2.8203 -3.293,5.8008 -3.765,14.7227 -0.661,11.918 1.976,18.0273 4.648,24.1289 11.82,3.6406 20.746,4.1172 23.891,1.3086 l 3.472,-8.7891 -5.816,-3.289 c 3.148,-2.8125 3.473,-8.7813 6.769,-14.5625 -5.636,-6.25 -5.308,-12.2188 -5.156,-15.168 z m -44.344,45.3398 5.489,9.2581 12.402,-8.297 -2.344,-12.0704 z m -21.796,70.4611 11.925,0.648 c 12.442,-8.269 16.391,-25.968 14.555,-46.98 -15.293,5.14 -25.496,28.48 -26.48,46.332 z m -6.516,-45.113 -33.371,7.16 c 2.531,9.09 2.344,12.051 2.199,15.023 l 5.961,0.317 2.816,3.14 9.114,-2.488 c 2.676,6.141 8.676,6.449 17.929,0.98 0.512,-8.929 -1.976,-18.043 -4.648,-24.132 z M 586.047,54.9609 c -12.07,2.3399 -15.074,2.1797 -15.875,17.0508 l -0.332,5.9688 2.527,9.0781 c -0.512,8.9297 -0.656,11.8906 2.16,15.0434 l -0.332,5.929 15.258,-5.133 c -2.672,-6.1089 -5.34,-12.2378 -4.867,-21.1558 z m -66.625,14.3008 4.652,24.1485 c 6.289,-5.6407 28.02,-19.3985 28.821,-34.2813 l 1.277,-23.8203 c -15.215,5.1602 -27.836,16.4336 -34.75,33.9531 z m -34.645,30.9683 -9.398,8.45 -6.988,17.562 c 2.855,3.129 8.816,3.469 14.785,3.77 6.14,-2.66 9.105,-2.492 12.109,-2.332 2.996,0.14 2.668,6.109 2.012,18 l 11.961,0.652 c 6.109,-2.652 9.258,-5.453 12.59,-11.25 l 12.293,-5.312 c 0,0 0.148,-2.969 6.254,-5.629 l 1.316,-23.821 -17.938,-0.9802 c -3.14,2.8322 -3.468,8.7692 -3.8,14.7192 0,0 -2.672,-6.11 -2.16,-15.0395 z m 17.664,-49.7808 c -6.437,8.6016 -12.914,17.1992 -13.386,26.1328 l 17.636,6.9297 c 0.801,-14.8906 1.418,-26.7929 -4.25,-33.0625 z M 491.461,31.9219 C 485.5,31.6211 485.5,31.6211 479.203,37.25 l -1.273,23.8203 18.406,-7.9687 1.125,-20.8633 z m 76.754,1494.9481 9.613,-11.44 -18.07,2.02 z m 240.16,-10.92 c 0.141,-2.98 -5.82,-3.31 -17.742,-3.94 -2.973,-0.17 -6.117,2.65 -6.621,11.58 11.922,0.63 18.07,-2.02 24.363,-7.64 z m 131.57,4.11 c 5.965,0.32 9.078,-2.47 15.368,-8.11 -2.965,-0.16 3.332,-5.78 15.734,-14.08 l -36.008,1.05 c -2.965,-0.17 -9.07,2.47 -15.359,8.12 -9.117,2.48 -15.297,5.14 -21.262,4.81 -2.965,-0.16 -15.074,2.19 -33,1.21 -12.078,2.33 -18.227,4.99 -30.188,4.34 z m 1399.365,-16.97 c -2.08,38.69 -21.1,58.58 -60.07,59.46 l -404.56,5.01 c 0.14,-2.98 0.33,-5.96 -2.49,-9.09 l -15.11,2.17 c -0.18,2.98 -0.33,5.96 2.49,9.07 -191.91,4.58 -386.48,3.04 -578.06,1.65 -326.408,0.29 -535.912,-11.18 -855.737,-22.48 -35.855,-1.93 -61.25,-30.17 -59.324,-65.91 L 337.426,56.4414 C 339.504,17.7422 361.527,-1.94922 400.352,0.148438 L 609.387,11.4414 c -3.477,8.7578 -7.102,20.4883 -4.571,29.5899 l 2.961,0.1679 2.821,3.1406 8.957,0.4688 c -0.18,2.9922 2.824,3.1602 8.785,3.4805 l 1.273,-23.8399 c -5.484,-9.25 -11.269,-12.539 -20.226,-13.0078 l 110.457,5.9609 -0.153,2.9571 -2.996,-0.168 -0.293,5.9688 2.965,0.1718 2.817,3.1172 c -0.149,2.9805 2.816,3.1524 11.82,3.6211 3.293,-5.7695 3.625,-11.7305 0.805,-14.8594 56.675,3.0704 98.535,5.3086 128.535,3.9493 l -0.145,2.9882 -3.148,2.793 c -6,-0.3203 -11.965,-0.6523 -15.11,2.168 l -9.769,14.4023 -3.289,5.7969 -9.621,11.4531 c 11.781,3.6094 20.746,4.0781 29.711,4.5703 6,0.3164 8.965,0.4883 15.078,-2.1523 l 11.926,0.6289 c 3.144,-2.8164 3.324,-5.7969 6.289,-5.6289 0.183,-2.9883 3.328,-5.8008 3.507,-8.7891 l 6.622,-11.582 0.808,-14.8789 86.567,4.6719 c -0.989,17.8593 0.921,38.8672 8.718,60.207 6.95,-17.5391 19.532,-28.8281 25.682,-31.4883 l -0.33,5.9688 21.04,-1.8594 c 3.32,-5.8086 3.8,-14.7305 4.13,-20.6797 l 0.47,-8.9297 c 110.5,5.9805 221.11,8.9805 334.75,12.1211 320.3,2.3672 589.48,-2.8828 910.39,-12.4492 35.82,1.9492 64.4,27.3672 62.47,63.0976 L 2339.31,1503.09" /><path
         id="path124"
         style="fill:#231f20;fill-opacity:1;fill-rule:nonzero;stroke:none"
         d="m 2135.39,641.34 c 0,-1.578 6.3,-6.309 9.43,-4.731 v 34.692 h -9.43 V 641.34" /><path
         id="path126"
         style="fill:#231f20;fill-opacity:1;fill-rule:nonzero;stroke:none"
         d="m 1985.64,357.59 c 0,-4.719 3.13,-7.871 11.03,-7.871 -3.18,1.562 -4.73,3.152 -6.31,4.73 -1.59,1.571 -3.14,3.141 -4.72,3.141" /><path
         id="path128"
         style="fill:#231f20;fill-opacity:1;fill-rule:nonzero;stroke:none"
         d="m 1962,499.48 h 14.16 v 3.141 H 1962 v -3.141" /><path
         id="path130"
         style="fill:#231f20;fill-opacity:1;fill-rule:nonzero;stroke:none"
         d="m 1965.14,764.309 c 1.58,-1.59 3.13,-1.59 6.3,-1.59 3.18,0 6.31,1.59 9.44,1.59 1.59,1.57 3.17,1.57 3.17,1.57 1.59,1.562 3.17,1.562 4.72,1.562 l -3.13,4.75 h -11.02 c -1.59,1.559 -6.35,1.559 -12.62,3.141 -1.58,-9.453 1.55,-11.023 3.14,-11.023" /><path
         id="path132"
         style="fill:#231f20;fill-opacity:1;fill-rule:nonzero;stroke:none"
         d="m 1962,650.809 h 7.85 v 3.132 H 1962 v -3.132" /><path
         id="path134"
         style="fill:#231f20;fill-opacity:1;fill-rule:nonzero;stroke:none"
         d="M 2025.05,430.121 V 419.07 c 1.56,-1.558 1.56,-3.148 1.56,-6.3 1.58,1.562 3.17,3.152 7.89,3.152 v 6.308 c -3.18,3.149 -6.31,4.719 -6.31,4.719 l -3.14,3.172" /><path
         id="path136"
         style="fill:#231f20;fill-opacity:1;fill-rule:nonzero;stroke:none"
         d="m 2021.89,393.859 c -3.17,3.153 -6.31,3.153 -9.44,3.153 -1.59,-1.59 -4.76,-1.59 -7.89,-1.59 1.54,-3.141 3.13,-4.723 4.71,-6.313 0,-1.558 3.18,-3.129 6.31,-3.129 1.58,0 3.14,1.571 4.72,1.571 1.59,0 3.17,1.558 6.31,1.558 h 3.17 l 3.13,3.172 v 4.731 l -6.3,4.718 c -1.56,-4.718 -4.72,-7.871 -4.72,-7.871" /><path
         id="path138"
         style="fill:#231f20;fill-opacity:1;fill-rule:nonzero;stroke:none"
         d="m 2013.99,346.559 c -1.54,0 -4.72,-11.02 -3.13,-15.758 h 7.86 c -1.56,3.148 -1.56,4.738 -3.14,9.449 -1.59,3.16 -1.59,4.73 -1.59,6.309" /><path
         id="path140"
         style="fill:#231f20;fill-opacity:1;fill-rule:nonzero;stroke:none"
         d="m 1988.77,570.41 c 0,-1.57 -3.13,-1.57 -7.89,-1.57 l 3.17,-9.481 c 3.17,0 6.31,0 6.31,1.59 h 6.31 c 0,1.59 -1.59,3.153 -3.18,4.711 l -4.72,4.75" /><path
         id="path142"
         style="fill:#231f20;fill-opacity:1;fill-rule:nonzero;stroke:none"
         d="m 2015.58,521.531 c 0,1.578 -1.59,3.18 -3.13,4.739 h -4.76 v -11.051 h 7.89 v 6.312" /><path
         id="path144"
         style="fill:#231f20;fill-opacity:1;fill-rule:nonzero;stroke:none"
         d="m 1552.11,379.68 c -3.13,0 -6.27,1.562 -7.86,1.562 -4.75,-1.562 -6.3,-4.742 -6.3,-7.871 v -3.18 c 0,0 1.55,0 1.55,-1.562 h 14.19 c 3.18,3.16 4.76,3.16 4.76,6.312 0,1.559 -1.58,3.141 -6.34,4.739" /><path
         id="path146"
         style="fill:#231f20;fill-opacity:1;fill-rule:nonzero;stroke:none"
         d="m 1555.28,1079.59 -3.17,-3.18 3.17,-1.57 1.59,4.75 h -1.59" /><path
         id="path148"
         style="fill:#231f20;fill-opacity:1;fill-rule:nonzero;stroke:none"
         d="m 1541.08,590.891 c 3.17,0 4.76,3.168 7.9,4.73 4.71,3.16 7.89,6.309 7.89,9.469 0,1.582 -1.59,4.711 -4.76,6.308 -1.55,0 -3.13,1.582 -3.13,3.153 l -12.62,-3.153 -11.02,-4.726 c 1.55,-3.172 3.13,-6.301 6.3,-9.473 1.59,-3.14 3.14,-6.308 6.31,-9.449 l 3.13,3.141" /><path
         id="path150"
         style="fill:#231f20;fill-opacity:1;fill-rule:nonzero;stroke:none"
         d="M 1601,620.852 V 624 c -3.17,-1.578 -7.89,-3.148 -12.61,-3.148 h 4.72 c 4.72,-1.563 6.3,-1.563 9.44,-1.563 0,1.563 0,1.563 -1.55,1.563" /><path
         id="path152"
         style="fill:#231f20;fill-opacity:1;fill-rule:nonzero;stroke:none"
         d="m 1616.75,515.219 c 0,1.59 -4.72,6.312 -6.3,6.312 -6.31,-4.722 -11.04,-9.441 -12.62,-11.019 h 9.48 c 0,1.578 3.14,3.148 9.44,4.707" /><path
         id="path154"
         style="fill:#231f20;fill-opacity:1;fill-rule:nonzero;stroke:none"
         d="m 1512.73,1212 c 0,0 1.54,1.56 1.54,3.14 h 1.59 v 3.17 c -4.72,0 -7.86,0 -9.44,-1.59 -3.17,0 -4.75,-1.58 -6.31,-1.58 v -15.75 c 1.56,-3.17 4.72,-4.74 9.45,-4.74 1.58,0 6.3,3.15 12.6,7.88 -1.54,1.58 -3.13,3.16 -6.3,3.16 -1.59,1.57 -3.13,3.14 -3.13,6.31" /><path
         id="path156"
         style="fill:#231f20;fill-opacity:1;fill-rule:nonzero;stroke:none"
         d="m 1578.92,614.551 h -9.45 v -3.153 h 9.45 v 3.153" /><path
         id="path158"
         style="fill:#231f20;fill-opacity:1;fill-rule:nonzero;stroke:none"
         d="m 1572.61,417.512 c -1.55,0 -3.14,1.558 -3.14,1.558 0,0 -3.17,1.571 -6.3,1.571 -6.3,0 -9.48,-3.129 -11.06,-7.871 1.58,-1.571 4.76,-3.149 6.34,-3.149 h 4.72 c 6.3,0 15.75,4.711 18.92,12.609 l -3.17,-3.16 c 0,0 -3.14,-1.558 -6.31,-1.558" /><path
         id="path160"
         style="fill:#231f20;fill-opacity:1;fill-rule:nonzero;stroke:none"
         d="m 1506.42,422.23 c 1.58,0 3.14,-1.589 6.31,-3.16 1.54,0 3.13,3.16 3.13,6.309 h -12.61 c 0,-3.149 0,-3.149 3.17,-3.149" /><path
         id="path162"
         style="fill:#231f20;fill-opacity:1;fill-rule:nonzero;stroke:none"
         d="M 1470.17,463.211 H 1467 v -6.301 h 3.17 v 6.301" /><path
         id="path164"
         style="fill:#231f20;fill-opacity:1;fill-rule:nonzero;stroke:none"
         d="m 1448.09,330.801 v 6.301 c -6.31,3.148 -11.03,3.148 -17.34,3.148 -3.17,0 -4.75,-1.578 -4.75,-4.711 3.17,-4.738 9.47,-6.309 17.37,-6.309 0,0 1.58,0 4.72,1.571" /><path
         id="path166"
         style="fill:#231f20;fill-opacity:1;fill-rule:nonzero;stroke:none"
         d="M 1470.17,363.898 H 1467 v -7.878 h 3.17 v 7.878" /><path
         id="path168"
         style="fill:#231f20;fill-opacity:1;fill-rule:nonzero;stroke:none"
         d="m 1468.59,305.57 v -18.91 c 0,3.149 0,6.309 1.58,7.871 0,1.59 1.55,3.168 1.55,4.739 0,1.57 0,3.152 1.59,4.742 h -3.14 c -1.58,0 -1.58,0 -1.58,1.558" /><path
         id="path170"
         style="fill:#231f20;fill-opacity:1;fill-rule:nonzero;stroke:none"
         d="m 1528.47,1174.17 h -3.13 v -9.47 h 3.13 v 9.47" /><path
         id="path172"
         style="fill:#231f20;fill-opacity:1;fill-rule:nonzero;stroke:none"
         d="m 1467,447.449 3.17,-3.148 3.14,1.57 -3.14,3.16 -3.17,-1.582" /><path
         id="path174"
         style="fill:#231f20;fill-opacity:1;fill-rule:nonzero;stroke:none"
         d="m 1675.08,1215.14 c -1.58,3.17 -6.3,6.3 -12.61,9.47 l -29.94,1.57 h -3.17 c -3.13,0 -9.44,-1.57 -14.2,-1.57 h -7.85 c -6.31,0 -12.61,-1.58 -17.37,-1.58 h -9.44 c -3.17,0 -4.72,0 -4.72,1.58 v 4.72 h -12.61 c -3.17,-4.72 -7.89,-7.89 -11.06,-7.89 -3.13,1.59 -6.27,0 -11.03,0 6.31,-4.72 15.79,-6.3 25.22,-6.3 3.17,0 6.31,0 11.03,1.58 4.76,1.59 9.48,1.59 11.06,1.59 1.55,0 6.31,0 17.33,-1.59 11.03,0 29.94,-1.58 53.62,-1.58 3.13,-1.58 4.72,-3.14 6.27,-3.14 1.58,-1.58 3.17,-1.58 4.75,-1.58 1.59,0 3.14,1.58 4.72,4.72" /><path
         id="path176"
         style="fill:#231f20;fill-opacity:1;fill-rule:nonzero;stroke:none"
         d="m 2056.55,955.039 c 4.75,-4.738 7.89,-6.301 9.48,-7.867 l -7.89,9.437 c -3.14,1.582 -6.31,3.172 -7.86,4.743 0,-1.571 3.13,-4.743 6.27,-6.313" /><path
         id="path178"
         style="fill:#231f20;fill-opacity:1;fill-rule:nonzero;stroke:none"
         d="m 1649.86,356.02 h 6.31 v 3.152 h -6.31 v -3.152" /><path
         id="path180"
         style="fill:#231f20;fill-opacity:1;fill-rule:nonzero;stroke:none"
         d="m 1640.39,1054.36 c -1.56,1.57 -1.56,4.72 0,6.3 1.58,3.15 0,4.73 -1.56,6.31 h -6.3 l -7.89,-4.74 v -9.46 c 9.48,-3.14 14.19,-4.71 15.75,-6.3 h 3.17 c 1.58,0 1.58,1.59 1.58,1.59 0,1.57 -1.58,4.71 -4.75,6.3" /><path
         id="path182"
         style="fill:#231f20;fill-opacity:1;fill-rule:nonzero;stroke:none"
         d="m 2058.14,359.172 c 3.16,0 4.75,0 4.75,1.59 0,1.558 1.55,3.136 3.14,4.718 -3.14,1.579 -6.31,1.579 -7.89,1.579 -1.59,1.57 -4.73,1.57 -6.31,3.132 l -6.31,-4.711 c 4.76,-4.718 9.48,-6.308 12.62,-6.308" /><path
         id="path184"
         style="fill:#231f20;fill-opacity:1;fill-rule:nonzero;stroke:none"
         d="m 2055,1152.08 h -4.72 v -6.31 h 4.72 v 6.31" /><path
         id="path186"
         style="fill:#231f20;fill-opacity:1;fill-rule:nonzero;stroke:none"
         d="m 2062.89,688.641 c -4.75,0 -6.34,-1.582 -6.34,-4.743 0,-1.558 0,-3.148 1.59,-3.148 3.16,-1.578 3.16,-3.148 9.47,3.148 l -4.72,4.743" /><path
         id="path188"
         style="fill:#231f20;fill-opacity:1;fill-rule:nonzero;stroke:none"
         d="m 2055,411.199 c -1.59,1.571 -1.59,6.313 -1.59,6.313 -6.3,-1.59 -7.89,-3.18 -7.89,-6.313 l 9.48,-3.168 v 3.168" /><path
         id="path190"
         style="fill:#231f20;fill-opacity:1;fill-rule:nonzero;stroke:none"
         d="m 1629.36,548.34 h 7.89 l 6.31,6.308 h -14.2 v -6.308" /><path
         id="path192"
         style="fill:#231f20;fill-opacity:1;fill-rule:nonzero;stroke:none"
         d="m 1616.75,453.762 c -3.14,0 -3.14,-1.59 -3.14,-1.59 -1.58,0 -3.16,-1.57 -3.16,-3.141 0,-3.16 1.58,-4.73 3.16,-6.301 v -6.308 c 6.31,3.137 9.44,6.308 9.44,9.449 0,3.16 -1.55,6.301 -6.3,7.891" /><path
         id="path194"
         style="fill:#231f20;fill-opacity:1;fill-rule:nonzero;stroke:none"
         d="m 1610.45,422.23 -3.14,-4.718 c 0,-1.59 0,-1.59 3.14,-1.59 h 3.16 v 3.148 c -3.16,1.571 -3.16,3.16 -3.16,3.16" /><path
         id="path196"
         style="fill:#231f20;fill-opacity:1;fill-rule:nonzero;stroke:none"
         d="m 1623.05,612.98 v 4.711 c -1.55,1.598 -3.13,3.161 -6.3,3.161 -3.14,-1.563 -4.72,-1.563 -4.72,-3.161 h -4.72 v -6.293 l 3.14,-1.597 c 6.3,1.597 11.05,1.597 12.6,3.179" /><path
         id="path198"
         style="fill:#231f20;fill-opacity:1;fill-rule:nonzero;stroke:none"
         d="m 1626.23,400.148 -3.18,-3.136 h 6.31 c 0,0 -1.59,1.578 -1.59,3.136 h -1.54" /><path
         id="path200"
         style="fill:#231f20;fill-opacity:1;fill-rule:nonzero;stroke:none"
         d="m 1634.12,598.781 -6.35,3.149 -1.54,-1.559 3.13,-3.172 4.76,1.582" /><path
         id="path202"
         style="fill:#231f20;fill-opacity:1;fill-rule:nonzero;stroke:none"
         d="m 1604.14,538.879 h 6.31 v 3.152 h -6.31 v -3.152" /><path
         id="path204"
         style="fill:#f14358;fill-opacity:1;fill-rule:nonzero;stroke:none"
         d="m 3218.31,450.602 c -3.17,0 -3.17,0 -4.75,1.57 -1.6,-1.57 -1.6,-1.57 -1.6,-3.141 h 4.76 c 1.59,0 1.59,1.571 1.59,1.571 z m -7.89,12.609 c 1.54,3.16 1.54,4.738 1.54,7.871 h -3.13 v -7.871 z m -7.89,0 c -6.31,1.57 -7.89,1.57 -12.62,1.57 v -4.722 c 3.18,-1.579 4.73,-1.579 7.89,-1.579 0,1.579 1.56,3.168 4.73,4.731 z m -14.2,39.41 h -4.72 v -14.18 c 3.14,3.149 4.72,7.868 4.72,14.18 z m -14.2,-121.379 c -1.54,0 -3.13,1.567 -4.72,3.149 -1.55,-3.149 -3.13,-4.711 -3.13,-7.891 l 4.72,-3.129 z m 1.59,290.059 c -3.13,1.558 -4.72,1.558 -7.86,1.558 -4.75,0 -6.34,-1.558 -6.34,-6.308 0,-1.559 1.59,-3.129 1.59,-4.719 3.17,-3.152 6.3,-3.152 7.89,-1.582 h 4.72 z M 3153.66,374.93 c -4.75,0 -6.3,1.57 -9.47,-3.141 l 4.72,-3.16 c 1.59,3.16 3.17,4.742 4.75,6.301 z m -1.58,-18.918 c -3.17,-1.563 -3.17,0 -6.31,-1.563 -1.58,0 -4.71,0 -7.89,-1.578 l 4.76,-7.891 c 3.13,4.739 4.72,6.301 9.44,11.032 z m -11.02,48.879 c -1.59,-1.582 -1.59,-4.743 -1.59,-6.301 l -1.59,-4.731 4.76,3.141 c 1.55,0 3.13,3.148 3.13,4.73 z m 15.74,86.699 c -1.55,0 -6.3,3.14 -7.89,4.719 l -3.14,4.73 c 0,0 0,-11.039 -1.58,-12.598 0,-1.582 -3.13,-4.742 -3.13,-4.742 0,0 -1.59,0 -3.18,-3.129 3.18,-1.601 4.76,-1.601 4.76,-1.601 0,0 3.13,-1.578 4.72,-1.578 6.3,-1.571 9.44,12.609 9.44,14.199 z m -33.11,81.969 c 1.58,0 4.76,-1.59 4.76,-1.59 1.58,0 1.58,-1.559 3.13,0 l 3.17,-4.719 c 1.55,3.16 4.72,4.719 7.89,6.309 3.13,1.589 4.72,3.152 7.86,7.89 l -15.75,15.75 c 0,-3.14 -3.17,-7.879 -6.3,-11.027 l -3.18,-7.891 c 1.59,1.578 0,0 -1.58,-4.722 z m -15.75,140.312 h 7.89 l 3.14,7.871 h -9.44 c 0,-1.57 0,-1.57 -1.59,-1.57 z m -4.72,-121.391 c 3.14,0 4.72,0 7.85,1.579 h 3.18 c 1.58,0 1.58,0 3.17,1.562 l -1.59,3.16 c -1.58,-1.582 -1.58,0 -1.58,0 v 3.149 c -7.89,-1.559 -11.03,-7.871 -11.03,-9.45 z m 0,11.02 17.34,6.301 v 3.179 l -3.14,1.559 -1.59,4.75 -12.61,-3.18 c 0,-3.129 1.59,-7.867 0,-12.609 z m -3.17,-280.57 c 0,0 -7.85,-1.59 -11.03,-4.75 1.6,-1.559 3.18,-3.141 4.73,-6.301 0,0 3.16,3.16 3.16,4.742 1.56,1.559 3.14,6.309 3.14,6.309 z m -20.46,340.492 h 3.14 v 7.879 h -3.14 z m -34.7,12.609 c 1.59,-4.73 4.72,-7.89 11.03,-7.89 0,1.589 0,4.718 -1.55,6.3 -3.18,1.59 -6.35,1.59 -9.48,1.59 z m -25.22,-268 c -3.14,-1.57 -4.72,-3.14 -6.31,-3.14 l -6.3,-3.161 4.71,-4.73 c 3.18,0 6.31,0 9.48,3.148 z m -12.61,348.379 c 0,-1.578 1.58,-3.148 1.58,-4.711 3.13,-3.179 6.31,-3.179 7.89,-1.578 h 4.72 v 11.02 c -3.17,1.578 -4.72,1.578 -7.89,1.578 -4.72,0 -6.3,-1.578 -6.3,-6.309 z m 126.1,-332.601 c -1.58,0 -3.13,1.57 -4.71,4.722 0,0 1.58,1.59 3.13,1.59 0,1.57 3.17,3.129 4.72,3.129 1.58,3.172 1.58,9.48 3.17,11.051 0,1.558 3.17,3.148 3.17,3.148 0,0 3.13,3.153 3.13,4.723 1.59,7.887 -4.71,17.348 -12.61,18.91 -1.58,0 -11.02,-3.133 -14.19,-4.711 0,-4.723 0,-6.312 -1.55,-11.031 1.55,1.558 3.14,3.14 4.72,3.14 4.72,0 6.31,-3.14 4.72,-7.878 l -3.17,-14.18 c -1.55,0 -1.55,-1.59 -3.13,-1.59 -1.59,1.59 -1.59,4.727 -3.14,7.898 0,0 -3.17,9.442 -4.75,9.442 0,0 -7.86,-14.18 -6.31,-15.75 1.58,0 1.58,-3.172 0,-4.731 0,-3.16 -3.14,-4.75 -4.72,-7.882 -7.89,-6.297 -12.62,-14.188 -15.78,-22.079 -1.55,-4.73 -11.03,-4.73 -12.62,-4.73 0,-1.578 -1.54,-7.891 -3.13,-11.02 l -4.72,-3.171 c -4.75,-1.567 -6.31,-1.567 -7.89,-1.567 -7.89,-3.16 -17.33,-11.051 -26.81,-14.183 -11.02,-4.739 -20.5,-7.887 -31.52,-9.469 -3.14,-3.141 -3.14,-3.141 -1.59,-4.719 0,-3.152 14.19,-4.73 17.37,-3.152 h 3.13 l 3.17,3.152 c 3.14,0 9.44,-1.59 14.16,0 4.76,1.578 9.48,4.719 11.07,4.719 1.54,1.582 3.13,1.582 4.71,1.582 h 9.45 c 1.58,0 3.17,0 4.75,1.59 h -1.58 c 1.58,0 1.58,0 1.58,1.558 v 1.578 c 6.31,4.731 9.44,6.293 14.2,12.602 l 4.72,-4.711 c 0,0 0,-1.598 1.55,-3.16 3.16,-3.149 7.89,-6.309 7.89,-6.309 1.58,1.578 12.61,9.469 20.5,9.469 l 9.44,12.602 1.58,6.308 c 0,1.582 0,3.16 1.59,4.723 v 4.726 c 1.59,3.161 6.3,1.582 6.3,1.582 l 3.14,11.04 c 1.58,4.742 1.58,9.46 -3.14,11.039 z M 3024.39,285.09 c 0,3.129 0,4.719 -1.59,7.879 -6.27,-1.571 -12.61,-1.571 -20.47,-1.571 0,-1.589 -1.58,-1.589 -1.58,-1.589 -3.17,-1.59 -4.72,-1.59 -4.72,-1.59 0,0 18.92,-3.129 28.36,-3.129 z m 28.39,242.742 c 7.86,116.668 -74.08,143.469 -198.64,121.398 l -14.16,-214.398 c 135.55,-22.062 206.5,22.066 212.8,93 z M 2827.37,928.25 c 0,0 0,3.141 -1.59,6.309 -3.17,1.562 -4.75,1.562 -6.3,4.722 l -3.18,-3.16 c -1.54,0 -1.54,-1.562 -3.13,-1.562 L 2810,928.25 Z m -4.76,50.449 c 6.31,3.133 9.48,7.871 9.48,12.61 0,0 0,1.562 -1.59,3.132 l -4.72,3.18 -3.17,3.129 c -1.58,0 -1.58,1.58 -3.13,3.16 l -4.72,-3.16 h -3.18 v -3.129 c -1.58,0 -1.58,0 0,-1.601 v -4.711 c 3.18,-1.579 3.18,-3.18 3.18,-3.18 0,-1.559 1.54,-3.129 1.54,-3.129 h -3.13 c -1.59,0 -3.17,0 -3.17,-3.168 h 1.58 l 1.59,-1.57 h 4.72 c 1.59,-1.563 0,-4.731 -6.31,-9.453 1.59,-1.59 1.59,-4.727 3.18,-6.309 0,-3.148 1.54,-4.719 4.72,-4.719 h 9.44 c 0,1.571 1.58,3.141 3.17,6.301 0,0 -1.59,0 -1.59,1.566 l -4.72,4.743 c -1.59,3.14 -3.17,4.718 -3.17,6.308 z m -9.44,-480.808 -4.76,1.589 -3.13,-22.089 h 4.72 z m -6.3,214.39 -1.59,1.59 v -1.59 l 1.59,-1.59 c 3.13,0 3.13,1.59 0,1.59 z m 15.74,206.5 c -1.58,0 -1.58,0 -1.58,1.578 v 1.582 l -1.55,1.571 h -3.18 l -3.13,1.57 c -1.59,0 -6.3,0 -12.61,-1.57 4.72,-6.301 7.85,-9.461 12.61,-11.043 4.72,1.582 7.86,3.172 9.44,4.742 z m -6.31,-378.332 c -3.13,0 -6.3,0 -9.43,-1.57 -1.59,0 -4.73,-1.57 -9.48,-1.57 V 526.27 l 9.48,-4.739 c 3.13,4.739 3.13,7.891 1.54,11.051 0,4.727 1.59,7.867 7.89,7.867 z m -22.05,340.5 7.89,-4.73 c 1.55,3.152 1.55,4.73 1.55,7.89 v 6.313 c -3.13,-3.18 -6.3,-3.18 -6.3,-4.742 -1.59,-1.571 -3.14,-3.149 -3.14,-4.731 z M 2810,748.52 c -3.13,4.742 -4.72,6.312 -7.86,7.89 l -6.34,4.731 c -1.55,-1.571 -3.13,-3.129 -1.55,-6.309 1.55,-3.133 1.55,-4.711 1.55,-4.711 z m -15.75,-20.469 3.14,-1.582 c 3.17,0 3.17,-1.578 4.75,-3.16 l -4.75,17.339 c -1.59,-1.558 -3.14,-3.148 -3.14,-4.726 0,-3.141 -1.58,-6.313 -3.17,-6.313 0,-1.558 1.59,-1.558 3.17,-1.558 z m 9.44,-280.602 c -6.3,7.891 -11.02,11.031 -15.74,9.449 v -1.558 c 0,-1.578 0,-1.578 -1.59,-1.578 0,-1.59 1.59,-4.731 4.72,-9.461 l 9.48,-1.571 z m -6.3,-18.918 v 3.16 c -3.14,0 -4.72,0 -6.31,-1.57 l -6.3,-3.18 c 1.58,0 4.75,0 6.3,-1.562 3.17,-1.57 6.31,-1.57 7.9,-1.57 0,3.132 0,4.722 -1.59,4.722 z m -15.75,383.051 9.44,-3.133 3.17,-1.59 c 3.14,0 4.73,0 6.31,-1.589 v 11.05 c 0,0 -3.17,1.571 -6.31,4.739 -9.47,-3.168 -12.61,-6.309 -12.61,-9.477 z m -1.58,-110.32 4.72,-1.59 4.75,4.707 -4.75,3.18 z m 17.33,-282.192 c -4.72,0 -11.03,-1.558 -18.92,-4.738 l 6.31,-1.562 c 1.58,-1.571 4.75,0 6.3,1.562 1.59,-3.133 3.17,-4.711 1.59,-4.711 1.58,0 1.58,-1.59 -1.59,-6.312 0,0 1.59,0 1.59,-1.579 h 4.72 c 6.3,4.731 3.17,12.602 0,17.34 z m -7.86,-130.851 -14.19,1.59 -1.59,-3.149 15.78,-1.57 z m 12.61,227 c -7.89,3.179 -14.19,6.312 -15.78,9.48 3.17,6.301 4.72,18.91 -12.61,15.75 6.31,-6.308 9.44,-12.617 9.44,-17.34 -1.55,-3.148 -1.55,-4.711 -3.13,-6.3 -1.59,-1.59 -3.14,-1.59 -3.14,-4.719 14.16,1.57 23.64,1.57 25.22,3.129 z m -18.95,225.429 c -3.13,3.161 -6.27,4.743 -9.44,6.313 -4.72,-3.152 -4.72,-6.313 -1.58,-11.039 3.17,0 6.3,1.578 11.02,4.726 z m -17.33,-307.398 12.61,-1.559 v 3.141 l -11.02,1.59 z m 4.72,-67.77 -4.72,1.579 -3.13,-6.297 3.13,-1.59 z m -11.02,436.661 c 3.17,-1.582 6.3,-1.582 7.89,-1.582 h 7.89 v 9.461 h -6.31 c 0,0 -1.58,1.562 -6.3,1.562 z m 1.58,-353.11 -4.72,1.571 v -7.872 h 3.14 z m -1.58,-48.883 -7.86,-1.558 1.55,-3.168 6.31,1.578 z m 6.3,204.942 c 4.72,-1.59 6.31,-4.719 9.48,-4.719 -1.59,1.559 -3.17,6.301 -7.89,9.43 -3.14,4.738 -4.72,7.89 -7.89,7.89 0,-1.582 -1.59,-4.711 -3.14,-6.293 -3.17,-1.597 -4.72,-4.726 -4.72,-6.308 4.72,3.152 11.03,3.152 14.16,0 z m -9.44,-297.949 -9.48,1.589 v -3.16 l 9.48,-1.558 z m -15.78,200.211 14.19,-4.731 3.14,3.16 z m 12.61,59.898 -9.44,6.309 -3.17,-3.149 9.48,-4.75 z m -7.89,151.332 h -6.27 c 12.61,-3.152 9.44,-11.023 9.44,-15.762 4.72,0 11.03,1.559 11.03,4.739 l 1.58,11.023 c -6.31,1.59 -12.61,1.59 -15.78,0 z m 3.17,-286.891 4.72,4.731 -14.16,1.57 c 0,-1.57 -1.58,-3.16 -4.76,-4.742 z m -14.2,422.457 h 9.48 l 1.55,4.75 -11.03,1.563 z m -3.13,-301.089 v -4.719 h 6.31 l 1.58,3.152 z m -3.17,-141.86 c 1.58,-3.168 4.72,-4.738 9.48,-6.308 9.43,-3.161 12.61,-4.743 11.02,-3.161 0,3.161 1.59,6.301 4.72,9.469 3.17,3.133 4.72,4.723 4.72,6.313 -1.55,0 -4.72,0 -7.85,-1.59 -3.18,0 -4.76,0 -7.9,-1.59 -9.47,-1.562 -14.19,-3.133 -14.19,-3.133 z m -18.92,25.223 c 3.17,0 4.76,0 3.17,3.137 -4.75,1.582 -6.3,3.171 -6.3,3.171 0,-4.738 0,-6.308 3.13,-6.308 z m 26.81,-91.442 c 1.59,1.579 4.72,1.579 7.89,1.579 3.13,0 6.31,0 6.31,1.582 -15.79,4.73 -26.81,7.871 -31.53,11.031 l -4.72,6.308 c 0,3.149 -1.59,4.711 -3.17,6.309 l -9.44,1.582 -7.9,-3.18 c 3.14,-11.019 20.51,-15.742 28.36,-15.742 -3.13,-6.308 -3.13,-9.469 0,-9.469 3.17,0 6.31,-1.57 6.31,-6.308 1.58,-1.57 1.58,-3.133 0,-6.313 -1.55,-1.558 0,-3.129 1.58,-4.711 l 9.48,-1.589 4.72,12.613 c -1.59,1.578 -3.17,3.168 -6.3,3.168 -1.59,0 -3.18,1.57 -1.59,3.14 z m -42.56,219.122 v -4.743 c 1.55,-1.57 1.55,-3.129 1.55,-4.718 l 12.62,-1.582 c 3.17,1.582 4.75,3.171 4.75,6.3 0,3.18 1.59,4.743 4.72,6.301 3.14,-3.121 7.89,-6.301 11.03,-6.301 h 6.3 c 1.59,1.59 3.18,3.18 6.31,4.743 -1.55,3.148 -15.75,11.046 -18.92,11.046 -1.58,-11.046 -14.19,-9.488 -28.36,-11.046 z m 18.92,-256.961 h -11.02 c -4.76,0 -6.35,0 -7.9,1.589 0,-3.16 0,-4.718 -1.58,-4.718 0,-3.172 1.58,-3.172 4.72,-3.172 7.89,0 15.78,6.301 15.78,6.301 z m 1.59,17.351 c -1.59,0 -3.17,1.567 -3.17,1.567 -1.59,0 -3.17,1.589 -6.31,1.589 -4.72,1.582 -7.89,0 -12.61,-4.718 0,0 4.72,-7.891 4.72,-11.051 1.59,1.57 3.17,1.57 3.17,1.57 3.14,0 3.14,1.59 4.72,1.59 4.72,1.582 6.31,1.582 7.89,1.582 z m -9.48,70.93 c -4.72,-3.141 -9.48,-6.313 -14.19,-6.313 l 6.3,-6.3 c 6.31,0 11.03,1.582 15.78,4.742 4.72,3.148 9.44,4.73 12.61,6.308 -6.3,4.731 -14.19,4.731 -20.5,1.563 z m 48.86,89.859 c -6.31,4.719 -11.03,7.891 -15.74,9.449 0,-1.558 0,-3.14 -1.59,-3.14 0,-1.59 0,-1.59 -1.59,-1.59 1.59,0 4.76,-1.559 7.89,-3.141 1.59,0 3.14,-1.578 4.72,-3.16 v -9.437 h -1.58 l -7.85,1.558 c -6.31,4.75 -7.9,7.879 -12.62,12.621 0,-1.582 -1.58,0 -7.89,3.149 -9.47,4.719 -7.89,7.89 -1.58,14.191 3.17,4.731 14.19,14.18 22.09,17.328 3.13,3.161 4.71,3.161 6.3,3.161 -6.3,0 -12.61,1.562 -15.78,4.73 -3.14,4.719 -3.14,9.449 -1.55,12.609 -4.76,0 -7.89,0 -11.06,-1.578 v -9.449 c -1.55,-1.582 -4.72,-3.16 -7.89,-4.75 -3.14,-1.562 -6.27,-3.133 -7.86,-4.723 4.72,-4.711 6.31,-7.89 6.31,-12.597 -3.17,-1.602 -6.31,-3.16 -9.48,-6.313 -6.3,-1.578 -9.44,-4.719 -11.03,-4.719 11.03,0 18.92,-6.308 26.81,-11.039 l -1.58,-6.312 c 0,-3.16 0,-4.738 -1.59,-4.738 0,0 -1.58,0 -1.58,-1.571 -1.55,0 -1.55,0 -1.55,-1.558 -9.48,0 -18.92,-3.18 -22.09,-7.891 1.58,0 3.17,-1.59 6.31,-1.59 6.3,-1.57 11.06,-1.57 15.78,-3.133 0,9.434 3.13,12.614 9.44,11.024 l 4.72,-4.723 c 0,-3.168 6.34,-9.469 9.47,-9.469 4.72,3.168 7.9,3.168 9.48,4.731 -4.76,4.738 -7.89,6.309 -7.89,7.871 l 6.31,3.18 c 1.58,0 3.13,0 6.3,-1.59 1.55,0 3.13,-1.59 4.72,-3.152 v -4.739 l 3.17,-4.722 c 12.61,7.89 14.16,14.203 1.55,25.222 z m -40.97,102.469 c -11.02,1.57 -18.92,3.141 -28.39,1.57 0,0 3.17,-1.57 9.47,-7.871 4.73,-1.59 7.9,-3.168 9.45,-6.301 l 6.3,6.301 c 3.17,1.571 3.17,3.141 3.17,6.301 z m -14.19,81.98 h -11.03 c -4.75,-4.738 -7.89,-7.898 -9.48,-11.05 3.18,0 4.73,-1.559 6.31,-3.149 1.58,-1.59 4.76,-1.59 6.31,-1.59 0,3.18 3.16,9.481 7.89,15.789 z m -12.62,17.329 1.59,1.582 h -14.2 v -4.743 c 1.59,0 1.59,-1.566 1.59,-1.566 1.59,0 1.59,-1.582 3.13,-3.16 1.59,0 3.18,0 4.73,1.578 3.16,1.582 4.75,1.582 6.34,1.582 -1.59,3.137 -3.18,3.137 -3.18,4.727 z m -7.89,-370.438 -11.02,-1.582 c 3.13,-4.73 6.3,-7.898 11.02,-11.027 z m 12.62,14.18 c 3.16,3.148 7.89,4.738 14.19,4.738 -3.13,1.563 -6.3,3.133 -11.03,7.871 -7.89,7.871 -12.6,6.309 -20.5,4.731 -1.58,-1.582 -4.71,-1.582 -6.3,-1.582 3.13,-7.887 7.89,-15.758 14.2,-20.5 4.71,0 7.89,3.171 9.44,4.742 z m -28.36,340.5 1.58,-3.16 6.27,1.589 v 3.129 z m -6.31,-225.442 h 9.44 v 3.172 h -7.89 z m -1.58,495 c 3.13,-6.3 4.72,-9.468 6.3,-9.468 3.17,-1.571 4.72,0 7.9,1.578 0,1.59 1.54,4.722 3.13,6.312 3.17,9.457 1.58,20.5 1.58,28.367 -1.58,9.461 0,18.922 3.18,26.793 -1.59,3.18 0,9.469 4.72,17.349 l 1.55,18.92 c 0,-3.15 1.58,48.88 3.16,72.51 0,1.58 -1.58,3.16 -1.58,4.72 0,1.59 0,3.17 -1.58,4.73 0,3.16 -1.55,6.31 -1.55,7.89 6.3,7.89 9.44,22.08 9.44,26.8 v 12.61 c 0,4.72 1.58,15.76 4.71,36.25 h -7.85 c -3.17,-1.57 -4.75,-3.14 -6.3,-7.87 -3.18,-3.16 -4.72,-7.88 -6.31,-7.88 1.59,-11.04 3.13,-20.5 1.59,-29.95 -1.59,-6.31 -1.59,-11.05 -3.18,-11.05 0,-1.57 1.59,-6.31 -1.58,-9.44 -1.59,-1.58 -1.59,-4.74 -1.59,-12.61 0,4.72 -1.54,-14.2 0,-36.27 -1.54,-14.18 0,-22.07 0,-22.07 -1.54,-9.45 -1.54,-15.76 -6.27,-28.37 -7.89,-14.18 -6.34,-18.92 -6.34,-31.53 1.59,-3.16 0,-7.871 1.59,-14.18 1.58,-7.891 0,-14.191 -3.14,-23.648 -1.58,-6.313 -1.58,-14.18 -1.58,-20.493 z m -4.72,-545.437 h -9.48 l -1.55,-3.141 h 9.44 z m -9.48,121.387 c 3.17,-3.149 6.31,-4.719 11.06,6.3 -7.89,-1.578 -11.06,-1.578 -14.19,-1.578 0,0 0,-3.133 3.13,-4.722 z m -4.72,78.812 c 1.59,-1.562 4.72,-3.141 4.72,-4.73 l 4.72,-4.719 -7.85,-6.313 c 4.72,-1.578 9.44,-1.578 12.61,-3.148 -1.59,1.57 3.13,-1.563 15.74,-4.742 l 4.72,7.89 c -7.85,0 -12.61,1.59 -17.33,3.161 l 3.17,11.039 c 1.55,4.722 -1.58,7.871 -9.47,9.441 -4.72,-6.301 -9.44,-7.879 -11.03,-7.879 z m -1.58,-132.41 c 3.17,-3.152 4.75,-6.313 4.75,-12.609 4.72,6.296 7.86,9.457 11.03,9.457 h 4.72 l 6.3,1.589 v 7.872 l -11.02,1.562 h -7.89 c -1.59,-1.562 -3.14,-1.562 -4.72,-1.562 0,-1.571 0,-3.149 -1.59,-3.149 -1.58,-1.59 -1.58,-3.16 -1.58,-3.16 z m -9.45,66.211 v 3.16 l -7.89,1.559 V 531 Z m -7.89,-34.692 c 0,-7.871 -1.58,-12.601 0,-15.761 0,-1.578 1.59,-3.149 1.59,-4.707 4.72,0 9.44,0 14.16,3.129 l 1.59,9.468 h -3.14 l -1.58,1.582 c 6.3,-1.582 11.02,-1.582 14.19,-3.16 4.72,-1.582 7.89,-1.582 12.61,0 -3.17,3.16 -1.58,4.719 0,4.719 1.55,1.59 3.14,3.172 3.14,6.309 l 1.58,6.312 c -7.89,-3.141 -15.78,-4.73 -25.22,-4.73 -6.3,-1.582 -12.61,-1.582 -18.92,-3.161 z m -1.58,69.372 c 3.17,0 7.89,-1.563 12.61,-3.153 h 3.17 c 0,-1.59 1.55,-1.59 1.55,-1.59 -1.55,-3.129 -9.44,-9.437 -12.61,-12.609 7.89,-4.719 14.2,-7.871 17.37,-11.031 3.13,-3.137 7.85,-7.887 14.19,-11.02 0,1.571 1.55,4.723 1.55,7.883 -4.72,6.297 -9.44,11.027 -15.74,14.168 0,6.309 12.61,12.609 22.05,14.199 4.75,1.59 9.48,3.153 14.19,3.153 4.72,1.558 7.9,3.148 7.9,6.308 -3.18,-1.57 -6.31,-1.57 -9.48,-3.16 -3.13,-1.59 -7.86,-1.59 -12.61,-4.711 -9.44,-3.18 -15.75,-3.18 -20.47,-3.18 -3.17,0 -4.75,0 -7.89,1.59 -4.72,3.153 -12.61,3.153 -15.78,3.153 z m 0,12.609 15.78,-1.563 v 4.711 l -14.2,1.59 z m 45.72,-189.16 c 1.59,0 4.72,-1.571 7.9,-4.742 6.3,6.3 12.61,7.89 17.32,9.472 -1.58,3.141 -4.71,7.867 -7.89,9.449 -3.13,3.161 -3.13,6.301 1.59,11.04 -4.72,0 -11.02,3.152 -14.2,7.871 v 3.168 c 3.18,3.132 6.31,3.132 11.07,3.132 -4.76,3.18 -9.48,6.309 -14.2,7.891 l -11.03,7.898 c -4.75,-4.738 -7.89,-7.898 -7.89,-9.48 -3.17,6.309 -6.3,9.48 -6.3,14.199 0,-1.59 0,-4.719 -3.17,-6.308 -3.14,-1.582 -3.14,-3.149 -3.14,-4.719 -6.31,0 -12.61,0 -18.92,-1.59 1.59,0 3.14,-3.141 4.72,-6.301 1.59,-1.59 1.59,-4.722 4.73,-6.301 4.75,-3.16 9.47,-4.718 15.78,-6.308 l 17.33,-4.723 c 0,1.571 4.72,4.723 7.89,4.723 0,-1.59 1.58,-3.152 3.13,-3.152 1.59,1.562 1.59,1.562 3.18,-1.571 -3.18,-6.308 -7.9,-12.609 -17.34,-18.918 1.55,-1.582 4.72,-3.172 9.44,-4.73 z m -52.03,61.48 c 3.17,-1.582 6.31,-4.73 9.48,-7.89 l 4.72,15.757 c -4.72,1.582 -9.44,4.75 -14.2,11.051 z m 22.09,-41 -4.72,4.739 -12.61,1.562 -7.89,-3.133 V 398.59 l 15.75,-1.59 c 1.58,3.148 3.16,4.73 6.3,6.309 3.17,1.582 3.17,3.152 3.17,4.722 z m 704.63,99.321 C 3316.03,299.27 3193.09,188.922 2966.09,188.922 h -378.33 c -17.37,0 -31.57,14.199 -31.57,34.68 l 69.4,1012.028 c 0,17.34 4.72,25.23 17.33,26.81 1.55,1.57 6.31,1.57 9.44,1.57 l 619.53,18.92 c 18.91,0 33.11,-14.18 33.11,-33.1 l -4.76,-162.37 c 0,-20.49 -11.02,-29.96 -29.94,-31.53 l -394.07,-29.96 -11.03,-137.13 c 321.55,34.672 488.66,-152.918 469.74,-381.488" /><path
         id="path206"
         style="fill:#f14358;fill-opacity:1;fill-rule:nonzero;stroke:none"
         d="m 4108.9,832.09 h -4.72 v -36.25 h 4.72 z m 3.17,11.019 c 0,3.172 -1.59,7.891 -6.31,14.192 -1.58,-1.582 -1.58,-4.711 0,-6.301 0,-3.148 0,-4.719 -1.58,-6.301 h -11.03 c 1.59,-3.16 0,-4.719 -3.17,-4.719 1.58,-1.589 4.76,-1.589 9.47,-3.171 0,0 3.14,-1.579 7.89,-1.579 0,0 0,1.579 3.14,3.161 1.59,1.589 1.59,3.148 1.59,4.718 z m -89.86,179.721 h -6.31 v -3.16 h 6.31 z m -6.31,-124.541 c -3.17,6.313 -4.72,11.043 -6.31,11.043 l -3.13,1.578 -3.17,-1.578 c 0,-3.172 1.58,-6.301 6.3,-6.301 z m -28.4,-31.519 h -12.61 v -7.872 c 7.89,0 12.61,3.133 12.61,7.872 z m 9.48,52.011 c 0,1.578 -1.58,4.731 -3.13,7.891 -3.18,-3.16 -6.35,-4.731 -6.35,-4.731 0,0 -1.54,0 -1.54,-1.582 h -1.58 c -3.14,-1.578 -6.31,-3.148 -9.49,-6.308 l 15.78,-3.141 c 3.18,3.141 6.31,6.301 6.31,7.871 z m -22.09,37.828 v -18.918 c 3.18,0 7.89,1.59 12.61,4.739 0,3.152 -3.12,9.461 -12.61,14.179 z m -1.54,37.832 h 4.72 v 4.739 h -4.72 z m 7.89,-162.351 -6.35,6.301 -6.27,-3.161 9.45,-6.3 z m 6.26,7.89 c -6.26,4.719 -9.43,6.301 -9.43,7.872 -4.72,0 -7.89,0 -9.45,-1.571 l -3.17,-1.582 c 7.9,-3.16 15.79,-4.719 22.05,-4.719 z m -14.15,-111.929 h -15.79 v -3.16 h 15.79 z m -25.22,146.59 h 11.02 c 0,1.578 0,4.73 -1.59,6.308 -1.54,0 -1.54,1.582 -3.14,1.582 h -6.29 z m 7.89,-18.922 c 3.13,3.179 6.27,6.312 6.27,11.051 -3.14,0 -6.27,0 -7.87,1.562 l -6.29,-4.723 c -3.18,-3.148 -4.73,-4.711 -3.18,-6.308 z m -25.23,149.771 c 3.14,-4.74 7.85,-3.16 7.85,0 0,0 1.59,1.56 3.18,1.56 l -11.03,3.17 c -1.58,-1.58 -1.58,-4.73 0,-4.73 z m 14.16,-217.541 c -4.72,6.301 -11.02,11.02 -17.33,12.61 z m -9.44,-113.508 -6.3,3.161 -3.17,-7.872 6.3,-1.589 z m -18.92,31.539 14.2,1.579 c 0,4.722 -6.34,7.871 -11.06,7.871 z m -25.21,4.711 v -3.132 h 9.43 v 3.132 z m 15.74,-17.332 -12.61,3.153 c -1.55,-1.563 -3.13,-1.563 -3.13,-3.153 h -1.59 c -3.17,-1.578 -3.17,-3.148 -3.17,-4.718 0,-3.172 0,-4.743 1.58,-4.743 h 1.59 c 1.59,-1.566 4.72,-3.148 7.89,-3.148 4.72,0 7.89,1.582 9.44,4.719 z m -9.44,-102.468 -12.61,-3.141 v -4.73 l 12.61,3.152 z m -12.61,53.609 c 0,1.57 0,1.57 -1.58,1.57 v 3.16 c -1.59,0 -1.59,1.579 -1.59,1.579 l -9.44,-6.309 z m -9.47,-77.25 c -4.73,-1.59 -7.87,-3.148 -7.87,-7.891 h 7.87 c 1.58,3.18 1.58,6.301 0,7.891 z m -7.87,44.148 c -3.16,-4.726 -3.16,-9.468 -1.58,-12.617 h 6.31 c 1.54,0 1.54,1.59 3.14,1.59 0,4.719 -3.14,7.871 -7.87,11.027 z m -3.16,-40.988 h 3.16 c 1.56,1.559 1.56,3.149 1.56,6.301 v 4.738 c -7.89,0 -12.61,-1.59 -12.61,-6.301 0,-3.179 3.16,-4.738 7.89,-4.738 z m -3.17,-14.18 c 0,1.559 -1.56,4.719 -4.72,6.309 -4.73,0 -7.9,-3.18 -7.9,-6.309 z m -4.72,89.84 h -11.03 c 3.13,-6.308 6.3,-11.039 11.03,-12.601 3.16,3.14 3.16,9.453 0,12.601 z m -12.62,-66.211 c 4.72,6.313 7.89,9.461 7.89,12.621 0,1.579 0,3.141 -1.58,6.301 -1.59,0 -3.13,3.149 -4.72,4.719 -1.59,0 -1.59,-1.57 -3.13,-1.57 h -1.59 c -1.58,0 -1.58,-1.559 -1.58,-1.559 0,0 -1.6,0 -3.18,-1.59 V 583.02 c 3.18,0 6.35,-1.571 7.89,-3.161 z m -15.74,33.121 h 12.61 l 23.64,-4.738 v 3.156 l -1.59,1.582 c -1.58,1.559 -1.58,1.559 -1.58,3.129 h -1.56 l -1.58,-1.57 -6.31,-1.559 h -6.3 l -3.13,12.602 c -6.35,-3.16 -11.06,-7.891 -14.2,-12.602 z m -11.02,33.09 c 3.13,0 6.27,-1.57 11.02,-1.57 v -7.891 h 9.43 c 1.6,0 4.77,1.59 4.77,1.59 -3.17,3.141 -11.06,6.301 -14.2,6.301 0,1.57 1.58,3.141 1.58,4.73 0,1.579 -1.58,3.149 -3.17,4.711 -4.72,0 -9.43,-4.711 -9.43,-7.871 z m -48.9,-22.07 -12.61,9.469 v -11.047 z m -26.77,58.332 v 7.879 h -4.75 v -7.879 z m 3.14,-108.773 -9.49,7.89 c -1.54,-1.59 -7.85,-7.89 -7.85,-11.039 l 7.85,-4.75 z m -12.62,-37.84 h -9.47 v -6.297 h 9.47 z m 36.25,230.16 c 39.41,12.601 83.55,29.961 116.67,58.312 20.5,17.348 33.11,39.418 39.38,66.231 9.48,61.469 -18.88,154.458 -91.41,140.288 l -124.52,-25.22 -15.79,-252.228 c 14.19,1.57 58.34,7.879 75.67,12.617 z m -126.11,-573.797 -1.55,4.738 h -3.17 l 1.58,-4.738 z m -56.75,219.117 -3.14,-4.738 c 0,-4.731 1.56,-9.461 3.14,-12.602 z m 0,-22.09 -3.14,-15.738 c -1.58,-1.582 -1.58,-4.742 -1.58,-4.742 0,-1.57 0,-3.149 -1.59,-3.149 3.17,-6.308 3.17,-7.89 1.59,-7.89 -1.59,1.582 -3.13,0 -3.13,-1.578 0,-9.453 0,-9.453 6.27,-20.473 z m -26.81,242.782 h -9.44 V 624 h 9.44 z m -22.05,-55.18 -1.58,3.148 -9.45,-3.148 v -3.152 z m 6.31,107.187 c -1.59,3.161 -4.73,6.313 -7.89,7.883 -3.14,1.578 -4.73,4.731 -4.73,6.301 -1.58,-1.57 -6.3,-4.723 -9.47,-4.723 0,-1.578 -1.55,-1.578 -3.14,-1.578 7.89,-1.57 14.2,-4.722 17.34,-7.883 z m -33.12,425.632 h 3.18 v 4.72 h -3.18 z m 7.89,-444.538 c 3.14,0 6.31,0 11.03,1.559 4.72,1.59 7.89,3.179 11.06,3.179 -1.59,1.571 -4.75,3.129 -7.89,6.301 -3.17,1.571 -4.72,3.141 -7.89,3.141 -3.17,0 -6.31,-1.57 -9.44,-3.141 -3.17,-3.172 -6.34,-4.73 -7.89,-6.301 4.72,-1.589 6.31,-3.179 4.72,-3.179 3.17,-1.559 4.72,-1.559 6.3,-1.559 z m -11.02,25.219 c 0,-1.57 1.55,-3.152 3.13,-6.313 l 3.18,4.743 c 1.58,1.57 1.58,3.14 1.58,4.718 h -7.89 z m 6.31,-56.742 h -3.18 l -4.71,-4.75 3.13,-1.559 z m 0,3.14 -4.76,12.621 h -3.13 l 4.71,-12.621 z m -11.03,-83.55 h -3.17 v -9.45 h 3.17 z m -11.06,441.382 h 3.17 v 7.889 h -3.17 z m -4.72,-400.382 h 7.89 c 0,0 0,1.562 -1.59,3.14 -3.14,1.582 -3.14,3.172 -4.72,4.731 v -4.731 c -1.58,-1.578 -1.58,-1.578 -1.58,-3.14 z m 14.19,-59.918 c -1.58,-7.871 -4.76,-14.18 -6.3,-20.481 -1.59,-7.879 -4.73,-14.18 -4.73,-18.93 0,-1.558 0,-3.14 1.56,-4.73 1.58,-1.559 3.17,-3.141 1.58,-4.719 -6.3,-1.582 -6.3,-6.312 -4.72,-9.461 1.58,-6.3 1.58,-11.039 0,-12.609 -1.58,0 -1.58,-1.563 -3.17,-3.152 0,0 -1.58,0 -1.58,-1.579 -3.14,-1.582 -3.14,-3.14 -3.14,-4.718 0,-1.59 0,-3.16 1.58,-4.731 0,-1.582 3.14,-3.172 -1.58,-6.301 -1.58,-1.589 -1.58,-1.589 -3.13,-1.589 h -1.58 c 3.13,-4.719 4.71,-7.891 3.13,-12.61 -3.13,-7.89 -6.31,-18.91 -3.13,-23.64 1.58,-4.743 0,-7.891 -1.6,-7.891 -6.3,-15.758 -3.17,-25.211 -1.58,-34.68 -3.13,-1.558 -4.72,-3.148 -6.31,-6.308 -4.71,-4.731 -6.31,-7.871 -6.31,-7.871 v -4.731 c 0,-12.609 0,-22.07 -1.58,-29.961 -3.13,-11.027 -3.13,-20.48 -4.71,-29.949 0,-3.148 0,-4.711 -1.56,-7.891 -1.58,-1.558 -3.17,-4.707 -3.17,-6.3 0,-4.719 1.59,-36.239 9.44,-44.137 4.76,-1.57 12.61,-3.133 22.09,-3.133 4.72,0 12.61,-1.59 20.5,-3.168 z m -66.22,-55.172 h 9.47 v 4.73 h -9.47 z m 7.89,-58.328 c -4.73,3.168 -7.89,6.3 -7.89,9.48 0,0 -1.59,-1.59 -1.59,-4.742 0,-1.57 0,-3.149 -1.55,-4.738 z m 3.13,15.781 c -4.72,1.57 -12.61,1.57 -15.75,0 l 7.89,-4.731 c 1.6,1.559 4.73,1.559 4.73,1.559 1.58,0 3.13,1.582 3.13,3.172 z m -15.75,15.75 4.73,-4.723 c 3.16,0 6.3,1.582 9.47,4.723 -4.71,4.726 -14.2,4.726 -14.2,0 z m 4.73,-63.063 h -7.86 v -4.718 h 7.86 z m -7.86,-67.769 -1.58,1.59 -4.76,-1.59 v -1.59 z m 721.96,430.359 c -12.61,-25.23 -26.81,-48.879 -42.55,-69.367 3.14,4.727 4.72,11.027 4.72,18.93 0,6.297 0,12.609 -1.58,18.91 -1.56,6.297 -1.56,11.027 -1.56,15.75 0,4.726 1.56,7.887 3.14,7.887 h -1.58 c 0,6.312 0,11.023 -1.56,15.761 0,6.309 1.56,11.039 6.27,17.352 -6.27,1.558 -7.85,4.719 -6.27,7.867 0,4.742 0,6.313 -1.58,7.871 V 682.332 c -26.8,-36.262 -58.34,-63.043 -94.58,-83.551 h -1.59 c -52.03,-28.371 -110.36,-50.441 -168.66,-66.199 -23.63,-7.883 -47.31,-12.621 -74.08,-17.363 -4.76,-1.559 -9.48,-1.559 -14.19,-3.129 -4.76,0 -7.89,-1.578 -12.62,-1.578 h -1.58 c 0,3.148 -1.58,3.148 -3.18,3.148 -4.71,0 -7.85,-1.57 -7.85,-4.75 0,-1.558 0,-1.558 1.58,-1.558 l -48.89,-6.313 -9.44,-280.59 c 0,-22.07 -11.06,-31.527 -31.53,-31.527 h -193.92 c -18.88,0 -31.49,14.199 -31.49,33.117 l 6.27,118.211 3.17,-3.148 c 6.3,1.57 9.44,4.738 15.79,9.457 l -4.76,3.16 h -7.86 l -6.34,-4.739 3.17,83.551 h 4.72 c 0,1.59 -1.55,3.16 -3.13,3.16 l -1.59,1.559 34.66,745.64 c 1.58,15.76 9.48,25.22 25.23,28.37 252.21,52.02 290.05,59.91 327.88,64.62 14.2,1.59 28.4,1.59 42.6,4.74 l 42.54,1.57 h 1.59 c 170.25,-7.88 263.25,-129.25 282.16,-291.62 11.03,-88.281 0,-165.511 -31.53,-234.871" /><path
         id="path208"
         style="fill:#f14358;fill-opacity:1;fill-rule:nonzero;stroke:none"
         d="m 5060.99,671.301 h -9.44 V 641.34 c 0,-1.578 6.3,-6.309 9.44,-4.731 z m -44.1,-261.68 c 0,1.578 -1.59,3.149 -3.18,3.149 0,1.562 -1.58,3.152 -3.16,3.152 -1.56,0 -3.14,0 -6.27,-3.152 h -1.59 l -1.59,-1.571 -4.71,1.571 c 0,3.152 0,3.152 1.54,4.742 v 1.558 c 1.59,0 1.59,1.571 3.17,1.571 -1.58,0 -1.58,0 -3.17,1.589 h -1.54 c -3.18,0 -7.89,0 -11.07,-1.589 1.58,-4.719 3.18,-7.871 3.18,-9.442 0,-3.168 1.58,-6.308 4.71,-7.89 h 11.07 c 4.71,0 7.85,0 9.43,-1.579 z m -23.68,-178.152 c -3.13,0 -4.71,1.601 -7.89,3.183 -3.13,1.559 -4.71,1.559 -6.27,1.559 -3.17,0 -3.17,0 -3.17,-1.559 0,0 -1.58,0 -1.58,-1.582 v -4.73 c 0,0 1.58,-1.578 1.58,-3.168 l 1.59,-1.57 c 7.85,1.57 12.61,3.16 15.74,4.738 z m -9.44,452.429 -4.72,4.743 c -4.75,0 -6.33,-1.582 -6.33,-4.743 0,-1.566 0,-3.148 1.58,-3.148 3.17,-1.578 3.17,-3.148 9.47,3.148 z m 9.44,-367.277 -3.13,6.309 -4.76,-3.18 c -3.13,-1.57 -4.71,-1.57 -6.27,-3.129 -4.75,-3.172 -7.89,-6.312 -7.89,-7.891 h 6.31 v -1.589 c -1.59,-1.571 -1.59,-3.129 1.58,-6.301 1.56,0 1.56,0 3.14,1.582 h 3.13 c -1.55,3.148 0,6.308 3.18,7.887 3.16,1.57 4.71,3.14 4.71,6.312 z m -18.91,639.988 c -3.14,1.582 -6.31,3.172 -7.85,4.743 0,-1.571 3.13,-4.743 6.27,-6.313 4.75,-4.738 7.89,-6.301 9.47,-7.867 z m -7.85,189.161 h 4.71 v 6.31 h -4.71 z m 4.71,-871.719 4.72,4.738 c -3.16,1.563 -3.16,1.563 -3.16,4.711 h -7.87 c -1.58,-1.578 -3.16,-3.148 -3.16,-4.711 1.58,-1.59 3.16,-3.18 4.76,-3.18 0,0 1.54,0 4.71,-1.558 z m -9.47,91.429 c 4.76,-4.718 9.47,-6.308 12.61,-6.308 3.17,0 4.75,0 4.75,1.59 0,1.558 1.56,3.136 3.14,4.718 -3.14,1.579 -6.31,1.579 -7.89,1.579 -1.58,1.57 -4.72,1.57 -6.31,3.132 z m 7.89,52.032 c -6.31,-1.59 -7.89,-3.18 -7.89,-6.313 l 9.47,-3.168 v 3.168 c -1.58,1.571 -1.58,6.313 -1.58,6.313 z m -9.48,707.778 h 3.17 v 4.74 h -3.17 z m 0,-685.731 1.59,-1.567 6.3,3.149 h -1.54 v 1.589 l -1.6,1.571 h -1.58 c 0,-1.571 -1.58,-1.571 -1.58,-1.571 -3.13,-1.589 -4.73,0 -1.59,-3.171 z m 1.59,-203.348 c -3.13,1.57 -4.73,1.57 -4.73,3.148 h -4.71 v -4.707 c 1.58,0 4.71,0 9.44,1.559 z m -11.03,266.41 c -3.17,0 -6.3,-1.582 -7.89,-4.73 4.72,0 7.89,3.148 7.89,4.73 z m 0,-80.391 c -3.17,3.149 -6.3,4.711 -6.3,4.711 l -3.14,3.18 V 419.07 c 1.55,-1.558 1.55,-3.148 1.55,-6.3 1.59,1.562 3.17,3.152 7.89,3.152 z m -14.19,703.06 h 4.75 v 4.74 h -4.75 z m -7.86,-29.96 h 3.14 v 6.31 h -3.14 z m 0,-460.299 -1.59,-4.722 3.14,-1.59 1.59,6.312 z m 6.27,-304.23 c -1.55,3.148 -1.55,4.738 -3.13,9.449 -1.59,3.16 -1.59,4.73 -1.59,6.309 -1.55,0 -4.72,-11.02 -3.14,-15.758 z m -11.02,184.418 h 7.89 v 6.312 c 0,1.578 -1.59,3.168 -3.14,4.739 h -4.75 z m 0,186.043 17.36,-1.59 4.72,3.148 c -1.58,0 -3.17,3.16 -4.72,6.309 h -14.2 c 0,-1.57 -1.58,-1.57 -1.58,-1.57 l -1.58,-1.579 z M 4949.07,397 l -6.3,4.73 c -1.55,-4.73 -4.72,-7.871 -4.72,-7.871 -3.17,3.141 -6.3,3.141 -9.44,3.141 -1.59,-1.578 -4.75,-1.578 -7.89,-1.578 1.55,-3.141 3.14,-4.723 4.72,-6.313 0,-1.558 3.17,-3.129 6.31,-3.129 1.58,0 3.13,1.571 4.72,1.571 1.58,0 3.17,1.558 6.3,1.558 h 3.17 l 3.13,3.172 z m -36.24,-47.281 c -3.17,1.562 -4.72,3.152 -6.31,4.73 -1.59,1.563 -3.13,3.141 -4.71,3.141 0,-4.719 3.12,-7.871 11.02,-7.871 z m 0,211.23 c 0,1.59 -1.59,3.153 -3.17,4.711 l -4.73,4.75 c 0,-1.57 -3.12,-1.57 -7.89,-1.57 l 3.18,-9.481 c 3.17,0 6.3,0 6.3,1.59 z m -23.64,485.521 v -3.15 h 12.62 v 3.15 z m 3.13,20.5 h -11.02 v -3.17 h 11.02 z m 0,-564.349 h -14.16 v -3.141 h 14.16 z m -14.16,151.32 v -3.132 h 7.86 v 3.132 z m 3.14,110.368 c 1.58,-1.59 3.13,-1.59 6.31,-1.59 3.17,0 6.3,1.59 9.43,1.59 1.59,1.57 3.18,1.57 3.18,1.57 1.59,1.562 3.17,1.562 4.71,1.562 l -3.12,4.75 h -11.03 c -1.59,1.559 -6.35,1.559 -12.62,3.141 -1.58,-9.453 1.56,-11.023 3.14,-11.023 z m -6.31,395.661 c 0,-3.15 4.73,-7.89 6.31,-7.89 l 7.89,4.74 c -3.17,1.57 -3.17,1.57 -3.17,3.15 z m 0,-767.689 -3.16,1.578 h -3.14 l 3.14,-3.16 z m -18.92,-97.75 3.14,3.168 -7.85,1.571 c -3.18,-4.739 3.13,-4.739 4.71,-4.739 z m 14.2,-69.359 c -9.47,0 -15.78,3.168 -22.09,9.48 -3.13,-3.183 -4.71,-6.312 -4.71,-7.89 0,-3.16 7.89,-9.473 14.2,-9.473 h 4.71 c 1.59,0 4.72,3.16 7.89,7.883 z m -34.69,22.078 c 4.75,1.582 9.47,4.73 15.78,9.449 l -1.58,1.582 v 1.59 c -1.6,0 -4.73,0 -6.31,-1.59 -1.58,0 -3.14,-1.582 -4.72,-1.582 -3.17,0 -6.31,1.582 -9.48,3.172 -6.3,-3.172 -11.03,-15.781 -7.89,-18.91 6.35,3.129 11.06,6.289 14.2,6.289 z m -18.92,197.051 c 3.17,-1.571 4.72,-1.571 6.31,0 h 6.3 v 6.301 h -7.89 c -3.14,-1.571 -4.72,-4.743 -4.72,-6.301 z m -3.13,-104.051 c 1.58,0 1.58,-1.578 1.58,-1.578 1.55,0 4.72,0 6.27,1.578 0,3.16 -1.55,3.16 -4.72,3.16 h -3.13 z m 7.85,-74.078 c -1.55,1.57 -4.72,3.137 -7.85,3.137 -1.59,0 -3.18,1.593 -7.89,1.593 -4.72,-3.16 -1.59,-7.89 0,-7.89 11.02,1.578 15.74,3.16 15.74,3.16 z m -249.05,93 h -6.3 v -3.16 h 6.3 z m -12.61,195.469 h -14.19 v -6.301 h 7.89 z m -14.19,42.558 4.75,1.582 -6.34,3.149 -1.55,-1.559 z m 15.78,450.861 c 0,1.57 -1.59,4.71 -4.76,6.3 -1.55,1.57 -1.55,4.72 0,6.3 1.59,3.14 0,4.73 -1.55,6.31 h -6.31 l -7.89,-4.74 v -9.46 c 9.48,-3.14 14.2,-4.71 15.75,-6.3 h 3.17 c 1.59,0 1.59,1.59 1.59,1.59 z M 4545.53,397 c 0,0 -1.59,1.59 -1.59,3.148 h -1.55 L 4539.22,397 Z m -6.31,48.859 c 0,3.172 -1.55,6.313 -6.31,7.903 -3.13,0 -3.13,-1.59 -3.13,-1.59 -1.59,0 -3.17,-1.57 -3.17,-3.141 0,-3.172 1.58,-4.73 3.17,-6.301 v -6.308 c 6.3,3.137 9.44,6.308 9.44,9.437 z m -9.44,-26.789 c -3.17,1.571 -3.17,3.16 -3.17,3.16 l -3.13,-4.718 c 0,-1.59 0,-1.59 3.13,-1.59 h 3.17 z m -3.17,190.731 c 6.3,1.597 11.06,1.597 12.61,3.179 v 4.711 c -1.55,1.598 -3.14,3.161 -6.31,3.161 -3.13,-1.563 -4.72,-1.563 -4.72,-3.161 h -4.71 v -6.293 z m -6.31,-67.77 v -3.152 h 6.31 v 3.152 z m -6.31,-31.519 h 9.49 c 0,1.578 3.13,3.148 9.43,4.707 0,1.59 -4.72,6.312 -6.3,6.312 -6.31,-4.722 -11.02,-9.441 -12.62,-11.019 z m -4.71,110.34 c 4.71,-1.563 6.31,-1.563 9.43,-1.563 0,1.563 0,1.563 -1.54,1.563 V 624 c -3.18,-1.578 -7.89,-3.148 -12.61,-3.148 z m -14.2,-9.454 v 3.141 h -9.44 v -3.141 z m 3.17,-189.168 -3.17,-3.16 c 0,0 -3.14,-1.558 -6.31,-1.558 -1.54,0 -3.13,1.558 -3.13,1.558 0,0 -3.17,1.571 -6.3,1.571 -6.31,0 -9.49,-3.129 -11.07,-7.871 1.58,-1.571 4.76,-3.149 6.34,-3.149 h 4.73 c 6.3,0 15.74,4.711 18.91,12.609 z m -26.8,652.61 1.58,4.75 h -1.58 l -3.18,-3.18 z M 4581.77,1212 c 1.59,-1.58 3.17,-1.58 4.75,-1.58 1.6,0 3.14,1.58 4.73,4.72 -1.59,3.17 -6.31,6.3 -12.62,9.47 l -29.94,1.57 h -3.16 c -3.14,0 -9.45,-1.57 -14.2,-1.57 h -7.85 c -6.31,0 -12.62,-1.58 -17.38,-1.58 h -9.44 c -3.16,0 -4.72,0 -4.72,1.58 v 4.72 h -12.6 c -3.18,-4.72 -7.89,-7.89 -11.07,-7.89 -3.13,1.59 -6.27,0 -11.02,0 6.31,-4.72 15.78,-6.3 25.22,-6.3 3.17,0 6.3,0 11.03,1.58 4.75,1.59 9.47,1.59 11.06,1.59 1.54,0 6.3,0 17.33,-1.59 11.02,0 29.94,-1.58 53.61,-1.58 3.13,-1.58 4.73,-3.14 6.27,-3.14 z M 4474.61,374.93 c 0,1.57 -1.58,3.152 -6.34,4.75 -3.13,0 -6.27,1.562 -7.85,1.562 -4.76,-1.562 -6.31,-4.742 -6.31,-7.871 v -3.18 c 0,0 1.55,0 1.55,-1.562 h 14.19 c 3.18,3.16 4.76,3.16 4.76,6.301 z m -26.81,222.269 c 1.6,-3.14 3.14,-6.308 6.31,-9.449 l 3.14,3.141 c 3.17,0 4.75,3.168 7.89,4.73 4.71,3.16 7.89,6.309 7.89,9.469 0,1.582 -1.58,4.711 -4.76,6.308 -1.55,0 -3.13,1.582 -3.13,3.141 l -12.61,-3.141 -11.03,-4.726 c 1.55,-3.172 3.14,-6.301 6.3,-9.473 z m -6.3,567.491 h 3.14 v 9.48 h -3.14 z m -9.48,-739.311 h -12.61 c 0,-3.149 0,-3.149 3.18,-3.149 1.58,0 3.13,-1.589 6.3,-3.16 1.55,0 3.13,3.16 3.13,6.309 z m 6.31,777.141 c -1.55,1.59 -3.13,3.17 -6.31,3.17 -1.58,1.57 -3.13,3.14 -3.13,6.31 0,0 1.55,1.56 1.55,3.14 h 1.58 v 3.17 c -4.71,0 -7.85,0 -9.43,-1.59 -3.18,0 -4.76,-1.58 -6.31,-1.58 v -15.75 c 1.55,-3.17 4.72,-4.74 9.44,-4.74 1.59,0 6.3,3.15 12.61,7.87 z m -48.86,-898.508 h -3.13 c -1.58,0 -1.58,0 -1.58,1.558 v -18.91 c 0,3.149 0,6.309 1.58,7.871 0,1.578 1.54,3.168 1.54,4.739 0,1.57 0,3.152 1.59,4.742 z m -6.31,52 h 3.18 v 7.886 h -3.18 z m 6.31,89.847 -3.13,3.172 -3.18,-1.582 3.18,-3.148 z m -6.31,11.039 h 3.18 v 6.313 h -3.18 z m -18.91,-119.796 c -6.31,3.148 -11.03,3.148 -17.34,3.148 -3.16,0 -4.75,-1.578 -4.75,-4.711 3.17,-4.738 9.48,-6.309 17.37,-6.309 0,0 1.58,0 4.72,1.571 z m 747.19,794.488 c -4.73,-181.289 -7.87,-241.168 -17.34,-422.461 -7.89,-160.789 -9.44,-327.887 -9.44,-487.09 0,-22.09 -9.47,-31.527 -31.52,-31.527 h -233.31 c -18.91,0 -31.53,12.609 -31.53,31.527 v 25.211 c 3.14,1.582 4.73,3.141 4.73,4.73 v 4.719 h -4.73 l 3.14,44.141 33.11,430.359 c -88.28,-193.89 -143.44,-301.078 -236.43,-520.211 -7.89,-20.476 -9.49,-25.218 -29.98,-25.218 l -233.31,-4.739 c -20.5,0 -33.11,14.199 -33.11,34.699 l 69.39,1030.93 c 1.56,18.91 11.03,29.96 31.5,29.96 l 189.16,4.74 c 18.95,0 33.11,-15.79 33.11,-33.11 l -29.94,-509.16 c 77.26,171.82 157.64,335.75 250.64,507.57 12.6,25.22 37.83,41 63.05,41 h 61.47 c 37.83,0 75.66,-9.47 102.48,-36.26 31.52,-31.53 50.44,-70.93 48.86,-119.81" /><path
         id="path210"
         style="fill:#f14358;fill-opacity:1;fill-rule:nonzero;stroke:none"
         d="m 5721.48,490 v -4.719 h -1.59 c -1.58,1.578 0,3.16 0,3.16 1.59,0 1.59,0 1.59,1.559 z m -31.57,-61.469 h -4.71 c -1.56,0 -3.14,0 -4.72,1.59 v -4.742 l 6.3,-1.57 c 3.13,1.57 3.13,1.57 3.13,4.722 z m -25.21,145.028 h -9.45 v -3.149 c 1.59,0 3.18,-1.57 3.18,-1.57 0,0 0,1.57 1.54,1.57 1.59,0 1.59,0 4.73,3.149 z m -170.22,12.613 -3.17,6.308 -3.16,-3.16 -4.73,-3.148 3.17,-1.582 v -1.57 z m -14.2,510.738 h -7.89 v -6.3 h 7.89 z m 17.34,-556.461 c 0,3.16 -1.58,4.731 -6.31,6.301 -3.16,-1.57 -4.72,1.59 -4.72,7.891 -7.89,-12.61 -15.78,-25.219 -11.06,-39.422 l -1.55,-4.707 c -1.59,0 -1.59,-1.602 -1.59,-3.16 0,-3.153 1.59,-4.731 3.14,-6.313 l -4.72,-4.73 c -1.55,-1.579 -3.13,-1.579 -3.13,-4.719 0,0 1.58,-3.149 4.71,-4.731 3.14,-3.16 4.73,-4.73 4.73,-6.289 0,-3.179 -1.59,-7.898 -6.31,-14.199 V 455.34 c 1.58,-1.578 1.58,-6.309 0,-14.199 l -3.13,-34.68 c 0,-4.731 -1.59,-11.039 -1.59,-17.352 1.59,-1.558 3.17,-1.558 4.72,-1.558 1.58,-1.571 4.72,-1.571 6.31,-3.16 6.3,-1.582 9.47,-1.582 11.03,-1.582 1.58,0 3.16,0 4.75,1.582 l 1.58,1.589 c 0,1.571 -1.58,3.129 -3.17,3.129 -3.16,1.59 -3.16,3.172 -4.72,4.75 4.72,0 6.31,1.563 9.45,6.289 -6.31,3.161 -6.31,7.883 -4.73,12.622 1.59,6.3 0,15.761 0,28.371 -1.58,0 -3.16,1.589 -3.16,1.589 6.33,3.129 7.89,6.301 7.89,11.032 l -4.73,9.449 c -1.58,6.309 -3.16,11.051 -3.16,15.758 0,3.16 -1.56,7.89 0,11.031 0,4.73 -1.56,6.309 -3.14,7.891 4.72,1.589 9.47,17.328 9.47,22.07 l 1.56,14.18 z m -7.89,-228.57 -3.14,64.621 c -1.58,0 -3.17,1.582 -4.71,1.582 -3.18,1.598 -3.18,3.16 -4.76,3.16 -4.73,-3.16 -14.2,-15.762 -12.62,-18.922 0,-1.558 0,-4.73 1.59,-7.871 1.59,-1.578 1.59,-3.168 1.59,-6.308 -1.59,-9.469 -1.59,-15.782 -1.59,-18.911 0,-1.582 -1.59,-3.171 -1.59,-3.171 0,-1.567 0,-3.129 -1.58,-4.719 3.17,-4.719 3.17,-7.891 1.58,-7.891 -1.58,0 -3.13,0 -3.13,-1.57 0,-4.738 0,-7.867 3.13,-9.457 0,-1.582 3.18,-7.891 7.89,-14.203 1.59,0 4.73,1.59 7.89,1.59 3.14,4.722 4.73,9.461 4.73,14.203 -3.13,4.718 0,6.297 4.72,7.867 z m -29.94,744.051 h -4.72 c 0,-3.16 1.58,-6.3 6.3,-9.46 3.13,3.16 4.72,6.3 4.72,11.03 -3.17,0 -4.72,-1.57 -6.3,-1.57 z m -31.54,37.83 v -9.45 c 3.18,-1.6 4.73,-1.6 6.31,-1.6 l 1.58,1.6 h 3.14 c 1.59,0 1.59,3.15 1.59,4.71 v 4.74 z m -28.39,-53.6 v 4.72 c -9.44,1.59 -15.74,3.18 -22.05,3.18 -6.31,0 -9.44,-3.18 -12.6,-9.48 3.16,0 6.29,0 9.43,-1.57 h 4.76 c 1.59,-1.56 3.13,-1.56 4.72,-1.56 9.47,-1.59 14.19,0 15.74,4.71 z m -56.71,61.48 h -9.48 v -4.73 h 9.48 z m 6.26,-40.98 h -6.26 l -3.17,1.57 h -3.17 c -6.27,-7.87 -9.45,-14.17 6.34,-15.76 l 6.26,3.16 z m -18.87,26.8 c -6.34,0 -9.47,-1.57 -12.61,-4.75 -3.17,-3.12 -6.35,-6.3 -9.48,-7.87 1.59,-3.15 6.31,-3.15 9.48,-4.73 1.54,-1.57 4.72,-1.57 9.43,1.58 -3.16,3.15 -1.58,6.31 3.18,7.9 0,1.56 1.55,1.56 3.13,3.12 3.14,0 3.14,1.6 6.31,1.6 -3.17,1.58 -4.72,1.58 -6.31,3.15 z m -29.98,-39.4 h -9.44 v -6.31 h 9.44 z m -15.74,26.78 v -6.3 l 20.49,3.15 z m 17.33,12.62 -9.44,6.3 h -9.48 c -4.72,-6.3 -6.31,-11.05 -3.13,-15.76 3.13,0 9.43,0 15.74,-3.16 l 6.31,6.31 z m -75.67,0 h -14.19 v -4.75 h 14.19 z m 725.13,-47.3 -214.38,-7.89 -12.61,-463.43 c -4.73,0 -9.48,-3.18 -12.62,-7.891 6.31,-3.16 6.31,-4.719 11.03,-4.719 h 1.59 l -1.59,-37.832 h -4.72 c -1.59,-1.589 -3.17,-3.179 -6.31,-3.179 -3.13,-1.559 -6.31,-3.129 -7.89,-3.129 3.18,-4.738 4.76,-9.469 4.76,-12.61 v -4.75 l -3.18,-3.14 h -1.58 c 0,-1.59 -1.58,-3.149 -1.58,-4.731 l 4.76,-15.777 3.13,-14.184 c 0,-1.558 -1.55,-4.726 -4.73,-7.867 -3.16,-3.172 -4.71,-4.73 -4.71,-6.301 0,-1.589 1.55,-3.171 1.55,-6.308 l 3.16,-4.731 c 1.6,-3.16 1.6,-6.312 0,-9.461 -1.58,-7.898 0,-12.609 4.73,-12.609 h 9.47 l -1.58,-9.473 c 0,0 -1.59,3.161 -4.72,6.313 -1.59,-4.731 -4.72,-6.313 -7.9,-6.313 -3.16,0 -6.29,0 -9.43,-1.558 0,0 -1.59,0 -1.59,-1.59 h -1.58 v -3.141 c 0,-3.16 1.58,-3.16 3.17,-3.16 1.54,0 3.14,1.582 7.85,1.582 1.58,0 3.18,-1.582 4.76,-1.582 v -3.148 c 0,-1.571 -1.58,-4.742 -3.18,-6.309 -1.58,-3.16 -3.16,-6.312 -3.16,-9.453 3.16,-1.598 6.34,-1.598 7.89,-1.598 l 4.72,-3.132 c 3.17,-3.161 0,-6.297 -4.72,-7.887 -6.31,-1.582 -9.44,-3.16 -9.44,-4.723 6.31,-4.73 7.89,-7.89 7.89,-9.469 0,-3.14 -3.18,-6.308 -9.47,-7.878 0,-3.153 1.58,-6.301 3.13,-7.872 0,-3.171 3.16,-4.738 6.34,-6.3 -3.18,-1.59 -3.18,-3.18 -4.76,-3.18 -1.58,-1.57 -3.13,-1.57 -3.13,-3.129 0,-4.742 0,-7.891 1.55,-11.051 1.58,-4.73 1.58,-9.461 1.58,-12.601 0,0 -4.71,-6.309 -4.71,-9.469 0,-1.578 1.58,-4.711 4.71,-7.891 3.18,-3.129 4.76,-4.707 4.76,-6.3 0,-3.137 -1.58,-6.297 -4.76,-9.438 -3.13,-4.73 -4.71,-7.891 -4.71,-9.48 0,-3.141 6.29,-14.18 14.19,-14.18 h 1.55 l -1.55,-11.039 c 0,-20.481 -11.06,-29.942 -29.95,-31.531 l -214.38,-4.719 c -17.36,0 -34.7,15.769 -31.56,33.117 l 6.34,252.223 c 0,1.558 1.55,1.558 1.55,1.558 h -1.55 l 6.26,193.91 6.35,-3.179 c 1.54,0 3.14,0 3.14,1.59 v 3.16 c -3.14,1.558 -6.31,1.558 -9.49,0 l 9.49,337.339 -217.52,-40.992 c -20.51,-4.726 -37.84,9.461 -37.84,31.532 l 9.44,238.05 c 1.59,20.47 11.02,29.94 31.53,31.52 l 707.79,14.18 c 18.93,0 33.12,-14.18 33.12,-33.1 l -4.76,-178.14 c -1.58,-20.5 -11.02,-29.94 -29.94,-31.53" /><path
         id="path212"
         style="fill:#231f20;fill-opacity:1;fill-rule:nonzero;stroke:none"
         d="m 2499.88,1483.92 c 2.01,1.98 3.98,-0.06 6.01,1.94 l 1.98,1.96 3.99,-0.07 16.81,4.72 c 3.98,-0.06 11.5,-12.62 19.47,-16.74 9.87,-10.14 13.35,-26.68 11.35,-32.66 -1.97,-1.97 -3.97,0.05 -3.97,0.05 l -1.98,2.04 c 0,0 -2,-1.97 -7.94,0.11 -5.98,-1.92 -9.95,2.13 -13.93,6.19 l -7.95,8.09 v 4.01 l -1.98,2.04 c -1.97,-1.96 -3.97,-3.95 -7.94,-3.9 z m 11.98,33.34 c -38.65,0 -82.72,-44.64 -82.72,-83.3 0,-38.65 44.07,-86.31 82.72,-86.31 38.66,0 72.75,47.66 72.75,86.31 0,38.66 -34.09,83.3 -72.75,83.3" /><path
         id="path214"
         style="fill:#231f20;fill-opacity:1;fill-rule:nonzero;stroke:none"
         d="m 140.422,163.961 c 7.871,-11.699 8.176,-28.539 5.062,-34.07 -2.324,-1.582 -3.929,0.75 -3.929,0.75 L 139.98,133 c 0,0 -2.359,-1.602 -7.855,1.5 -6.293,-0.84 -9.457,3.832 -12.637,8.52 l -6.332,9.339 0.754,3.942 -1.57,2.351 c -5.098,14.11 20.976,10.746 28.082,5.309 z m 9.68,-2.191 C 128.645,193.672 67.3164,205.262 35.4063,183.809 3.49219,162.34 -11.3906,99.4922 10.0742,67.5898 31.5352,35.6719 89.8164,33.9922 121.723,55.4492 c 31.914,21.461 49.843,74.4028 28.379,106.3208" /><path
         id="path216"
         style="fill:#231f20;fill-opacity:1;fill-rule:nonzero;stroke:none"
         d="m 2438.84,1677.9 c 0,-21.47 -17.4,-28.1 -38.87,-28.1 -21.46,0 -49.79,22.67 -49.79,44.13 0,21.47 33.52,50.52 54.23,44.87 38.55,-10.53 34.43,-39.44 34.43,-60.9" /><path
         id="path218"
         style="fill:#231f20;fill-opacity:1;fill-rule:nonzero;stroke:none"
         d="m 256.207,304.641 c 0,-23.422 -18.984,-30.661 -42.406,-30.661 -23.422,0 -54.328,24.731 -54.328,48.161 0,23.418 36.574,55.121 59.164,48.949 42.066,-11.488 37.57,-43.02 37.57,-66.449" /><path
         id="path220"
         style="fill:#231f20;fill-opacity:1;fill-rule:nonzero;stroke:none"
         d="m 2741.78,1761.27 c 0,-32.02 -25.96,-41.92 -57.98,-41.92 -32.02,0 -74.27,33.82 -74.27,65.83 0,32.03 50,75.37 80.89,66.93 57.51,-15.71 51.36,-58.83 51.36,-90.84" /></g></g></svg>